<svg width="40" height="40" viewBox="0 0 40 40" fill="none" xmlns="http://www.w3.org/2000/svg">
<g id="arcticons:bank-2">
<path id="Vector" d="M35.4167 12.1377L20 4.5835L4.58334 12.1377M35.4167 12.1377V16.0402H4.58334V12.1377M35.4167 12.1377H25.7042M4.58334 12.1377H14.2958M4.58334 31.1518H35.4167V35.4168H4.58334V31.1518Z" stroke="#CB1A14" stroke-linecap="round" stroke-linejoin="round"/>
<path id="Vector_2" d="M20 12.759C21.2408 12.759 22.2467 11.7531 22.2467 10.5123C22.2467 9.27149 21.2408 8.26562 20 8.26562C18.7592 8.26562 17.7533 9.27149 17.7533 10.5123C17.7533 11.7531 18.7592 12.759 20 12.759Z" stroke="#CB1A14" stroke-linecap="round" stroke-linejoin="round"/>
<path id="Vector_3" d="M15.135 16.04V31.1517M11.625 16.04V31.1517M8.11583 16.04V31.1517M24.865 31.1517V16.04M28.375 31.1517V16.04M31.8842 31.1517V16.04" stroke="#CB1A14" stroke-linecap="round" stroke-linejoin="round"/>
</g>
</svg>
