<svg width="28" height="28" viewBox="0 0 28 28" fill="none" xmlns="http://www.w3.org/2000/svg">
<g id="button-icon">
<g id="icon">
<path d="M15.1667 3.50016C15.1667 2.85583 14.6443 2.3335 14 2.3335C13.3557 2.3335 12.8333 2.85583 12.8333 3.50016V5.25016C12.8333 5.28252 12.8346 5.31457 12.8372 5.34626C9.52464 5.89986 6.99999 8.77903 6.99999 12.2489V16.9168C6.99999 17.5004 6.52153 18.5124 5.99793 19.4451C5.26115 20.7576 5.39608 22.34 6.80271 22.8755C8.21743 23.4142 10.4805 23.9168 14 23.9168C17.5195 23.9168 19.7825 23.4142 21.1973 22.8755C22.6039 22.34 22.7388 20.7576 22.0021 19.4451C21.4784 18.5124 21 17.5004 21 16.9168V12.2494C21 8.77958 18.4753 5.89997 15.1628 5.34627C15.1653 5.31458 15.1667 5.28252 15.1667 5.25016V3.50016Z" fill="#667185"/>
<path d="M10.4068 24.8788C10.4503 24.9168 10.5029 24.9612 10.5642 25.0102C10.7395 25.1505 10.99 25.3323 11.3066 25.5132C11.9349 25.8722 12.8639 26.2502 14 26.2502C15.1361 26.2502 16.0651 25.8722 16.6934 25.5132C17.01 25.3323 17.2605 25.1505 17.4358 25.0102C17.4971 24.9612 17.5497 24.9168 17.5932 24.8788C16.5732 25.0059 15.3837 25.0835 14 25.0835C12.6163 25.0835 11.4268 25.0059 10.4068 24.8788Z" fill="#667185"/>
</g>
</g>
</svg>
