<svg width="24" height="24" viewBox="0 0 24 24" fill="none" xmlns="http://www.w3.org/2000/svg">
<path id="Vector" d="M12 12.944L16.328 17.272C16.4524 17.3964 16.6053 17.4631 16.7867 17.472C16.968 17.4809 17.1298 17.4142 17.272 17.272C17.4142 17.1298 17.4853 16.9724 17.4853 16.8C17.4853 16.6276 17.4142 16.4702 17.272 16.328L12.944 12L17.272 7.672C17.3964 7.54756 17.4631 7.39467 17.472 7.21333C17.4809 7.032 17.4142 6.87022 17.272 6.728C17.1298 6.58578 16.9724 6.51467 16.8 6.51467C16.6276 6.51467 16.4702 6.58578 16.328 6.728L12 11.056L7.672 6.728C7.54756 6.60356 7.39467 6.53689 7.21333 6.528C7.032 6.51911 6.87022 6.58578 6.728 6.728C6.58578 6.87022 6.51467 7.02756 6.51467 7.2C6.51467 7.37244 6.58578 7.52978 6.728 7.672L11.056 12L6.728 16.328C6.60356 16.4524 6.53689 16.6053 6.528 16.7867C6.51911 16.968 6.58578 17.1298 6.728 17.272C6.87022 17.4142 7.02756 17.4853 7.2 17.4853C7.37244 17.4853 7.52978 17.4142 7.672 17.272L12 12.944ZM12.004 24C10.3453 24 8.78533 23.6853 7.324 23.056C5.86356 22.4258 4.59289 21.5707 3.512 20.4907C2.43111 19.4116 1.57556 18.1422 0.945333 16.6827C0.315111 15.2231 0 13.6636 0 12.004C0 10.3453 0.314667 8.78533 0.944 7.324C1.57422 5.86356 2.42933 4.59289 3.50933 3.512C4.58844 2.43111 5.85778 1.57556 7.31733 0.945333C8.77689 0.315111 10.3364 0 11.996 0C13.6547 0 15.2147 0.314667 16.676 0.944C18.1364 1.57422 19.4071 2.42933 20.488 3.50933C21.5689 4.58844 22.4244 5.85778 23.0547 7.31733C23.6849 8.77689 24 10.3364 24 11.996C24 13.6547 23.6853 15.2147 23.056 16.676C22.4258 18.1364 21.5707 19.4071 20.4907 20.488C19.4116 21.5689 18.1422 22.4244 16.6827 23.0547C15.2231 23.6849 13.6636 24 12.004 24ZM12 22.6667C14.9778 22.6667 17.5 21.6333 19.5667 19.5667C21.6333 17.5 22.6667 14.9778 22.6667 12C22.6667 9.02222 21.6333 6.5 19.5667 4.43333C17.5 2.36667 14.9778 1.33333 12 1.33333C9.02222 1.33333 6.5 2.36667 4.43333 4.43333C2.36667 6.5 1.33333 9.02222 1.33333 12C1.33333 14.9778 2.36667 17.5 4.43333 19.5667C6.5 21.6333 9.02222 22.6667 12 22.6667Z" fill="#101928"/>
</svg>
