<svg xmlns="http://www.w3.org/2000/svg" viewBox="0 0 697.33 695.5"><defs><style>.cls-1{fill:#e00c34;}</style></defs><g id="Layer_2" data-name="Layer 2"><g id="Layer_1-2" data-name="Layer 1"><path class="cls-1" d="M611,449.06H86.31A86.4,86.4,0,0,1,0,362.75V86.31A86.41,86.41,0,0,1,86.31,0H611a86.41,86.41,0,0,1,86.31,86.31V362.75A86.4,86.4,0,0,1,611,449.06ZM86.31,29.21a57.16,57.16,0,0,0-57.1,57.1V362.75a57.17,57.17,0,0,0,57.1,57.11H611a57.17,57.17,0,0,0,57.1-57.11V86.31A57.16,57.16,0,0,0,611,29.21Z"/><path class="cls-1" d="M38.33,151.51a119.18,119.18,0,0,1-27.06-3.08L0,145.78V86.31A86.41,86.41,0,0,1,86.31,0h69.24l1.86,12.44A126.21,126.21,0,0,1,158.81,31,120.61,120.61,0,0,1,38.33,151.51Zm-9.12-29.66c3,.3,6,.46,9.12.46A91.39,91.39,0,0,0,129.61,31c0-.6,0-1.21,0-1.82H86.31a57.16,57.16,0,0,0-57.1,57.1Z"/><path class="cls-1" d="M659,151.51A120.61,120.61,0,0,1,538.51,31a126.21,126.21,0,0,1,1.4-18.59L541.77,0H611a86.41,86.41,0,0,1,86.31,86.31v59.47l-11.27,2.65A119.27,119.27,0,0,1,659,151.51Zm23.73-17.3h0Zm-115-105c0,.61,0,1.22,0,1.82A91.38,91.38,0,0,0,659,122.31c3.07,0,6.12-.16,9.13-.46V86.31A57.16,57.16,0,0,0,611,29.21Z"/><path class="cls-1" d="M611,449.06H543l-2.32-11.78a119.4,119.4,0,0,1-2.21-22.9A120.62,120.62,0,0,1,659,293.9,118.71,118.71,0,0,1,686.06,297l11.27,2.64v63.12A86.4,86.4,0,0,1,611,449.06Zm-43.14-29.2H611a57.17,57.17,0,0,0,57.1-57.11V323.56c-3-.3-6.06-.45-9.13-.45a91.37,91.37,0,0,0-91.27,91.27C567.72,416.21,567.77,418,567.88,419.86Z"/><path class="cls-1" d="M150.63,449.06H86.31A86.4,86.4,0,0,1,0,362.75V298.42l11.79-2.31a118.65,118.65,0,0,1,22.89-2.21A120.61,120.61,0,0,1,155.16,414.38a118.6,118.6,0,0,1-2.21,22.9ZM29.21,323.27v39.48a57.17,57.17,0,0,0,57.1,57.11h39.48c.11-1.82.17-3.65.17-5.48a91.38,91.38,0,0,0-91.28-91.27C32.85,323.11,31,323.16,29.21,323.27Z"/><rect class="cls-1" x="290.25" y="439.94" width="29.21" height="200.8"/><ellipse class="cls-1" cx="456.36" cy="441.76" rx="151.51" ry="49.29"/><path class="cls-1" d="M456.36,600.58c-80,0-166.11-20-166.11-63.89h29.21c0,10.06,48,34.68,136.9,34.68s136.91-24.62,136.91-34.68h29.21C622.48,580.58,536.37,600.58,456.36,600.58Z"/><path class="cls-1" d="M456.36,695.5c-80,0-166.11-20-166.11-63.89h29.21c0,10.06,48,34.68,136.9,34.68s136.91-24.62,136.91-34.68h29.21C622.48,675.51,536.37,695.5,456.36,695.5Z"/><rect class="cls-1" x="593.27" y="439.94" width="29.21" height="200.8"/><path class="cls-1" d="M318.63,313.12q-10.72,0-22.36-1a14.61,14.61,0,0,1,2.56-29.1c47.61,4.19,72.95-6.7,80.2-17.31,2.52-3.7,2.81-7.21.91-11.06-4.14-8.35-19.21-18.62-48.06-20.09-20-1-36.33-11.55-43.75-28.16-7.14-16-4.49-34.66,6.91-48.79,10.5-13,37-32.95,96.79-20.37a14.6,14.6,0,1,1-6,28.58c-32-6.74-57.48-3-68,10.13-4.54,5.63-5.65,12.55-3,18.53,2.89,6.48,9.67,10.45,18.58,10.91,35.17,1.8,62.36,15.36,72.73,36.29,6.61,13.32,5.53,28.08-3,40.51C389.44,302.23,359.22,313.12,318.63,313.12Z"/><path class="cls-1" d="M345,162.47H345a14.61,14.61,0,0,1-14.55-14.66l.09-27.07a14.61,14.61,0,0,1,14.6-14.56h0a14.61,14.61,0,0,1,14.56,14.66l-.09,27.07A14.61,14.61,0,0,1,345,162.47Z"/><path class="cls-1" d="M345.1,339.23a14.6,14.6,0,0,1-14.6-14.55l-.09-27.08A14.59,14.59,0,0,1,345,283H345a14.6,14.6,0,0,1,14.61,14.55l.09,27.08a14.61,14.61,0,0,1-14.56,14.65Z"/></g></g></svg>