<svg width="20" height="21" viewBox="0 0 20 21" fill="none" xmlns="http://www.w3.org/2000/svg">
<g id="icon / home">
<path id="icon" fill-rule="evenodd" clip-rule="evenodd" d="M11.9121 2.26198C10.7643 1.45857 9.23672 1.45857 8.08899 2.26198L2.35767 6.2739C1.39216 6.94976 0.855306 8.08524 0.945697 9.26033L1.53321 16.898C1.64402 18.3385 2.94919 19.3855 4.3794 19.1812L7.02075 18.8038C8.25237 18.6279 9.16719 17.5731 9.16719 16.329V15.2745C9.16719 14.8142 9.54029 14.4411 10.0005 14.4411C10.4608 14.4411 10.8339 14.8142 10.8339 15.2745V16.329C10.8339 17.5731 11.7487 18.6279 12.9803 18.8038L15.6217 19.1812C17.0519 19.3855 18.357 18.3385 18.4678 16.898L19.0554 9.26033C19.1458 8.08524 18.6089 6.94977 17.6434 6.2739L11.9121 2.26198ZM9.04476 3.62737C9.61862 3.22566 10.3824 3.22566 10.9563 3.62737L16.6876 7.63929C17.1704 7.97722 17.4388 8.54496 17.3936 9.13251L16.8061 16.7702C16.7691 17.2504 16.3341 17.5994 15.8574 17.5312L13.216 17.1539C12.8055 17.0953 12.5005 16.7437 12.5005 16.329V15.2745C12.5005 13.8937 11.3812 12.7745 10.0005 12.7745C8.61982 12.7745 7.50053 13.8937 7.50053 15.2745V16.329C7.50053 16.7437 7.19559 17.0953 6.78505 17.1539L4.1437 17.5312C3.66696 17.5994 3.23191 17.2504 3.19497 16.7702L2.60745 9.1325C2.56226 8.54496 2.83069 7.97722 3.31344 7.63929L9.04476 3.62737Z" fill="#C73E3E"/>
</g>
</svg>
