<svg width="20" height="20" viewBox="0 0 20 20" fill="none" xmlns="http://www.w3.org/2000/svg">
<g id="icon / image-add">
<g id="icon">
<path fill-rule="evenodd" clip-rule="evenodd" d="M2.50016 5.83333C2.50016 4.91286 3.24635 4.16667 4.16683 4.16667H13.3335C13.7937 4.16667 14.1668 3.79357 14.1668 3.33333C14.1668 2.8731 13.7937 2.5 13.3335 2.5H4.16683C2.32588 2.5 0.833496 3.99238 0.833496 5.83333V15C0.833496 16.8409 2.32588 18.3333 4.16683 18.3333H15.8335C17.6744 18.3333 19.1668 16.8409 19.1668 15V8.33333C19.1668 7.8731 18.7937 7.5 18.3335 7.5C17.8733 7.5 17.5002 7.8731 17.5002 8.33333V12.2077L14.4534 8.39918C13.044 6.63752 10.3284 6.75537 9.07696 8.63249L8.12727 10.057C6.9919 9.43387 5.5595 9.78186 4.83976 10.8714L2.50016 14.413V5.83333ZM13.1519 9.44033L17.5002 14.8757V15C17.5002 15.9205 16.754 16.6667 15.8335 16.6667H7.28102C6.61545 16.6667 6.21845 15.9249 6.58765 15.3711L10.4637 9.55699C11.0894 8.61843 12.4472 8.55951 13.1519 9.44033ZM5.2009 14.4466C4.72784 15.1562 4.67409 15.9686 4.92333 16.6667H4.5835C4.12326 16.6667 3.75016 16.2936 3.75016 15.8333V15.7949C3.75016 15.6316 3.79816 15.4719 3.88818 15.3356L6.23039 11.79C6.4427 11.4686 6.84106 11.3408 7.1922 11.4596L5.2009 14.4466Z" fill="#C73E3E"/>
<path d="M4.31933 7.3319C4.72023 7.46553 5.03482 7.78012 5.16846 8.18102C5.30446 8.58903 5.88158 8.58903 6.01758 8.18102C6.15121 7.78012 6.4658 7.46553 6.8667 7.3319C7.27471 7.19589 7.27471 6.61878 6.8667 6.48277C6.4658 6.34914 6.15121 6.03455 6.01758 5.63365C5.88158 5.22564 5.30446 5.22564 5.16846 5.63365C5.03482 6.03455 4.72023 6.34914 4.31933 6.48277C3.91132 6.61878 3.91132 7.19589 4.31933 7.3319Z" fill="#C73E3E"/>
<path d="M17.5002 3.33333C17.5002 2.8731 17.1271 2.5 16.6668 2.5C16.2066 2.5 15.8335 2.8731 15.8335 3.33333V4.16667H15.0002C14.5399 4.16667 14.1668 4.53976 14.1668 5C14.1668 5.46024 14.5399 5.83333 15.0002 5.83333H15.8335V6.66667C15.8335 7.1269 16.2066 7.5 16.6668 7.5C17.1271 7.5 17.5002 7.1269 17.5002 6.66667V5.83333H18.3335C18.7937 5.83333 19.1668 5.46024 19.1668 5C19.1668 4.53976 18.7937 4.16667 18.3335 4.16667H17.5002V3.33333Z" fill="#C73E3E"/>
</g>
</g>
</svg>
