<svg width="33" height="24" viewBox="0 0 33 24" fill="none" xmlns="http://www.w3.org/2000/svg">
<path d="M12.2073 23.964C8.27345 23.5428 4.80299 21.7532 2.54114 18.9863C1.25416 17.409 0.473167 15.6969 0.121171 13.6799C-0.0410771 12.7632 -0.0397021 11.2399 0.121171 10.3147C0.61204 7.51074 2.09152 5.05724 4.41937 3.18679C9.72956 -1.08156 17.864 -1.05966 23.1246 3.23734C23.8231 3.8069 24.2741 4.26019 24.9066 5.02354C25.7041 5.9891 26.2651 6.94792 26.8564 8.36003C26.8784 8.41059 26.987 8.47799 27.0983 8.50495C27.4696 8.59932 27.9687 8.95656 28.3688 9.4149C28.6796 9.76877 28.9202 10.1563 29.5128 11.2567C30.1109 12.3655 32.8183 17.4865 32.9833 17.8219C33.0465 17.9533 32.92 18.1622 32.777 18.1622C32.6767 18.1622 32.6038 18.078 32.4553 17.7915L30.9208 14.8729C28.3083 9.91538 28.1667 9.68621 27.4393 9.23965L27.0571 9.00374H25.9337C24.8118 9.00374 24.8104 9.00543 24.7829 9.15034C24.6344 9.94234 24.6069 10.1378 24.6399 10.1749C24.6605 10.1985 25.2971 10.6433 26.0561 11.1623L27.4338 12.1094L27.3486 12.3301C27.3005 12.4514 27.2468 12.5526 27.2276 12.5526C27.2083 12.5526 26.0479 11.7639 24.6495 10.8017C23.2498 9.84123 22.0233 9.02565 21.9243 8.99195C21.5255 8.85714 20.915 9.39637 20.915 9.88336C20.915 10.3754 21.0347 10.5203 23.4918 12.9856C25.0249 14.5258 25.9021 15.4492 26.0355 15.6683C26.2802 16.066 26.5264 16.6524 26.7546 17.3736C27.1533 18.6442 27.8037 19.3519 28.8693 19.6788L29.2199 19.7867L29.1911 20.0226C29.1829 20.113 29.1658 20.2018 29.1402 20.2871C29.0948 20.3495 28.3881 20.0731 27.9797 19.8322C27.3403 19.4564 26.9004 18.9205 26.4686 17.9887C26.2806 18.058 26.0948 18.1361 25.9117 18.2229C25.3741 18.4622 25.348 18.4824 24.8393 19.0907C22.6723 21.6824 19.5648 23.3389 15.8111 23.9017C15.202 23.9944 12.8549 24.0348 12.2073 23.964ZM15.9431 23.167C17.6646 22.8873 18.9997 22.4694 20.3981 21.7684C21.8652 21.032 23.2484 19.9737 24.2164 18.8481L24.5973 18.4032L23.6375 17.8421C22.6118 17.2405 22.51 17.1411 22.3794 16.6035C22.2969 16.2665 22.3904 15.9042 22.6517 15.5571L22.8565 15.2858L22.411 14.8712C22.059 14.5427 21.949 14.3994 21.8803 14.1804C21.8263 14.01 21.8079 13.8257 21.8269 13.6444C21.8459 13.4631 21.9016 13.2905 21.9889 13.1423L22.1237 12.9098L20.717 12.6065C20.1804 12.4967 19.6459 12.3719 19.1138 12.2324C18.9969 12.1768 18.8924 12.0881 18.8088 11.9736C18.7252 11.8591 18.6648 11.722 18.6326 11.5735C18.6023 11.4185 19.2926 7.29337 19.4466 6.70358C19.5004 6.55183 19.5807 6.41641 19.6819 6.30692C19.7831 6.19743 19.9028 6.11654 20.0323 6.06999C20.2647 6.01775 24.4116 6.91085 24.6179 7.05914C24.9451 7.29168 25.0482 7.66914 24.9451 8.24713L24.9011 8.48979H25.1307C25.2572 8.48979 25.557 8.46957 25.7949 8.44766L26.2294 8.40553L26.0135 7.91685C25.3617 6.4306 24.1848 4.9376 22.73 3.75129C22.0508 3.19858 20.6029 2.32402 19.7312 1.9415C18.3769 1.36636 16.9729 0.98524 15.5471 0.805744C14.7565 0.704638 12.6844 0.704638 11.9172 0.807429C10.0761 1.05345 8.40545 1.56404 6.94384 2.32739C3.56138 4.09505 1.28578 7.02207 0.704164 10.3602C0.552916 11.2314 0.539166 12.7581 0.679414 13.5518C0.987411 15.3043 1.65978 16.8226 2.75426 18.2364C4.98174 21.1128 8.38757 22.8805 12.4699 23.2816C13.0158 23.3338 15.3862 23.2563 15.9431 23.167ZM15.1965 20.026C14.9861 19.9518 14.773 19.6434 14.729 19.3519C14.6987 19.1598 14.7345 19.0284 14.9572 18.4993C15.8592 16.3592 16.2511 14.3927 16.2511 12.0032C16.2511 9.69463 15.9046 7.9 15.0425 5.74645C14.8569 5.28473 14.7056 4.85503 14.7056 4.79437C14.7056 4.5652 14.8624 4.23323 15.0315 4.10348C15.2639 3.92317 15.653 3.95688 15.84 4.17088C15.9115 4.25514 16.0971 4.62754 16.2525 5.00332C16.8698 6.48621 17.292 8.11569 17.501 9.8109C17.6302 10.8607 17.6563 12.8491 17.5532 13.8096C17.3799 15.5117 16.9804 17.1676 16.3707 18.7116C15.9995 19.6468 15.7685 20.0327 15.5732 20.0327C15.5263 20.0341 15.4796 20.0426 15.4344 20.058C15.3541 20.0677 15.2731 20.0568 15.1965 20.026ZM12.6858 18.4167C12.364 18.3004 12.1303 17.8151 12.2238 17.4511C12.2472 17.3635 12.3984 16.9574 12.562 16.5496C13.2434 14.8813 13.5333 13.014 13.3994 11.1556C13.2839 9.66261 13.0653 8.72064 12.5153 7.34224C12.1454 6.41712 12.1289 6.27388 12.3434 5.90316C12.5469 5.54929 13.057 5.49031 13.3238 5.79195C13.5094 6.0009 14.0869 7.47704 14.3083 8.31285C15.0448 11.084 14.9314 14.0893 13.9893 16.7653C13.5053 18.1572 13.1656 18.5869 12.6858 18.4167ZM10.0981 16.7838C9.99505 16.7226 9.90424 16.6344 9.83203 16.5255C9.75981 16.4166 9.70794 16.2897 9.68006 16.1536C9.65118 15.9952 9.69931 15.82 9.93718 15.2319C10.8062 13.0749 10.8158 10.9955 9.96468 8.88747C9.59206 7.96067 9.58381 7.77699 9.90005 7.41132C10.0554 7.23102 10.1214 7.199 10.34 7.199C10.7072 7.199 10.8983 7.42649 11.2255 8.25219C11.7302 9.52275 11.9378 10.6248 11.935 12.0369C11.935 13.4861 11.7412 14.4837 11.2022 15.8233C10.8928 16.59 10.7402 16.7923 10.4322 16.8445C10.3185 16.8569 10.2039 16.8362 10.0981 16.7838ZM7.68221 15.2639C7.4954 15.1427 7.35438 14.9372 7.28896 14.6909C7.22984 14.4348 7.27796 14.2309 7.51583 13.7523C7.82108 13.1373 7.89258 12.8087 7.89258 12.0032C7.89258 11.1994 7.82108 10.8691 7.51583 10.2541C7.42535 10.0782 7.34804 9.89264 7.28483 9.69969C7.18721 9.29526 7.46221 8.79816 7.83208 8.71222C8.14558 8.63976 8.36145 8.81332 8.65019 9.36435C9.05927 10.1603 9.27634 11.0819 9.27634 12.0226C9.27634 12.9633 9.05927 13.8848 8.65019 14.6808C8.35457 15.2403 8.02595 15.4391 7.68221 15.2639ZM25.6807 17.746C25.9599 17.623 26.2019 17.5084 26.217 17.4882C26.2335 17.4697 26.1799 17.2506 26.0974 17.0012C25.9296 16.4923 25.9571 16.5041 25.3631 16.644C24.7196 16.7956 24.347 16.6608 23.6444 16.0272C23.4519 15.8537 23.2553 15.7121 23.2044 15.7121C23.1549 15.7121 23.0463 15.8014 22.961 15.9126C22.7823 16.1486 22.7548 16.5193 22.9005 16.7383C23.0284 16.9288 24.7939 17.9583 25.0042 17.9634C25.0964 17.9668 25.4016 17.869 25.6807 17.746ZM25.403 16.0896C25.6642 16.0255 25.6931 16.0036 25.6477 15.9008C25.5982 15.7863 23.1563 13.3024 22.9445 13.1508C22.7699 13.0261 22.6283 13.0547 22.4839 13.2451C22.059 13.8012 22.1085 13.9192 23.2071 14.9521C24.5326 16.1957 24.6729 16.2699 25.403 16.0896ZM22.125 12.3301C22.125 12.3133 21.8487 12.0217 21.509 11.6814C20.673 10.8371 20.4943 10.522 20.4943 9.89853C20.4943 9.37615 20.7775 8.87399 21.234 8.58415C21.5038 8.43581 21.8062 8.40201 22.0934 8.4881C22.2557 8.55214 22.9844 9.03576 23.995 9.74855L24.2081 9.89853L24.3841 8.87736C24.5629 7.8326 24.567 7.55961 24.4006 7.49558C23.68 7.32656 22.9581 7.16591 22.235 7.01364C20.2097 6.57552 19.9883 6.55024 19.8948 6.73729C19.8439 6.83839 19.0739 11.2129 19.0739 11.3999C19.0739 11.4926 19.1124 11.6089 19.1592 11.6561C19.2059 11.705 19.8632 11.8785 20.6194 12.0437C22.0797 12.3655 22.125 12.3739 22.125 12.3301Z" fill="#CB1A14"/>
</svg>
