<svg width="40" height="40" viewBox="0 0 40 40" fill="none" xmlns="http://www.w3.org/2000/svg">
<g id="streamline-emojis:money-bag">
<path id="Vector" d="M17.0417 10.8332C17.0417 10.8332 16.4667 8.92488 17.95 5.74988C19.4333 2.57488 22.1583 1.84988 23.7167 2.64988C24.2016 2.89263 24.6002 3.27877 24.8581 3.75585C25.116 4.23292 25.2208 4.77783 25.1583 5.31655C25.1583 5.31655 28.1 4.68322 28.5417 7.04988C28.9833 9.41655 27.5 10.2916 25.5917 10.3832C24.5086 10.4151 23.4673 10.8082 22.6333 11.4999L17.0417 10.8332Z" fill="#FAF2F3"/>
<path id="Vector_2" d="M25.1583 5.35018C25.2208 4.81145 25.116 4.26655 24.858 3.78947C24.6001 3.31239 24.2016 2.92626 23.7166 2.68351C22.1916 1.90018 19.4916 2.68351 18.0416 5.59184C19.0583 4.62518 20.2416 4.00018 21.375 4.32518C23.3333 4.90018 23.2 6.03351 23.2 6.03351C24.4182 5.74793 25.6999 5.95456 26.7666 6.60851C27.5976 7.12044 28.1957 7.93682 28.4333 8.88351C28.6512 8.30866 28.6919 7.68168 28.55 7.08351C28.1 4.71684 25.1583 5.35018 25.1583 5.35018Z" fill="#FAF2F3"/>
<path id="Vector_3" d="M17.0417 10.8332C17.0417 10.8332 16.4667 8.92488 17.95 5.74988C19.4333 2.57488 22.1583 1.84988 23.7167 2.64988C24.2016 2.89263 24.6002 3.27877 24.8581 3.75585C25.116 4.23292 25.2208 4.77783 25.1583 5.31655C25.1583 5.31655 28.1 4.68322 28.5417 7.04988C28.9833 9.41655 27.5 10.2916 25.5917 10.3832C24.5086 10.4151 23.4673 10.8082 22.6333 11.4999L17.0417 10.8332Z" stroke="#CB1A14" stroke-linecap="round" stroke-linejoin="round"/>
<path id="Vector_4" d="M24.45 12.2085C24.45 13.5918 22.4584 15.3751 20 15.3751C17.5417 15.3751 15.55 13.5918 15.55 12.2085C15.55 10.8251 17.5417 10.3418 20 10.3418C22.4584 10.3418 24.45 10.8335 24.45 12.2085Z" fill="#FAF2F3" stroke="#CB1A14" stroke-linecap="round" stroke-linejoin="round"/>
<path id="Vector_5" d="M31.0166 35.8334C31.3775 35.7286 31.6945 35.5094 31.9199 35.2088C32.1454 34.9082 32.2671 34.5425 32.2666 34.1667L31.7416 23.1834C31.4666 17.3834 26.2916 12.8584 19.9999 12.8584C13.7083 12.8584 8.54161 17.3834 8.26661 23.1167L7.73328 34.1001C7.73334 34.4769 7.85621 34.8434 8.08327 35.1442C8.31033 35.4449 8.62921 35.6635 8.99161 35.7667C16.1422 38.1131 23.8519 38.1365 31.0166 35.8334Z" fill="#FAF2F3"/>
<path id="Vector_6" d="M31.8667 25.7334L31.7417 23.1167C31.4667 17.3834 26.2917 12.8584 20.0001 12.8584C13.7084 12.8584 8.54172 17.3834 8.26672 23.1167L8.14172 25.7334C8.89172 20.4334 14.0501 16.3834 20.0001 16.3834C25.9501 16.3834 31.1167 20.4334 31.8667 25.7334Z" fill="#FAF2F3"/>
<path id="Vector_7" d="M31.0166 35.8334C31.3775 35.7286 31.6945 35.5094 31.9199 35.2088C32.1454 34.9082 32.2671 34.5425 32.2666 34.1667L31.7416 23.1834C31.4666 17.3834 26.2916 12.8584 19.9999 12.8584C13.7083 12.8584 8.54161 17.3834 8.26661 23.1167L7.73328 34.1001C7.73334 34.4769 7.85621 34.8434 8.08327 35.1442C8.31033 35.4449 8.62921 35.6635 8.99161 35.7667C16.1422 38.1131 23.8519 38.1365 31.0166 35.8334Z" stroke="#CB1A14" stroke-linecap="round" stroke-linejoin="round"/>
<path id="Vector_8" d="M16.8334 17.1751C16.8334 14.7917 18.25 12.8584 20 12.8584C21.75 12.8584 23.175 14.7917 23.175 17.1751" stroke="#CB1A14" stroke-linecap="round" stroke-linejoin="round"/>
<g id="Vector_9">
<path d="M25.1584 5.3501C23.7654 5.58856 22.4874 6.27286 21.5167 7.3001L25.1584 5.3501Z" fill="#FF87AF"/>
<path d="M25.1584 5.3501C23.7654 5.58856 22.4874 6.27286 21.5167 7.3001" stroke="#CB1A14" stroke-linecap="round" stroke-linejoin="round"/>
</g>
<path id="Vector_10" d="M19.4583 30.5419V27.6836L18.225 27.2836C17.7758 27.1388 17.3493 26.9312 16.9583 26.6669C16.6094 26.4239 16.3237 26.1011 16.125 25.7252C15.895 25.2804 15.7831 24.784 15.8 24.2836C15.7906 23.6313 15.9546 22.9882 16.2753 22.4201C16.5959 21.852 17.0617 21.3793 17.625 21.0502C18.1922 20.712 18.8264 20.5016 19.4833 20.4336V19.4586C19.4873 19.4047 19.5024 19.3522 19.5276 19.3044C19.5528 19.2567 19.5877 19.2146 19.6299 19.181C19.6722 19.1473 19.721 19.1228 19.7732 19.1089C19.8254 19.095 19.8799 19.092 19.9333 19.1002C20.1416 19.1002 20.2666 19.1669 20.3166 19.2919C20.378 19.4914 20.4034 19.7002 20.3916 19.9086V20.4336C21.0891 20.4538 21.7763 20.6065 22.4166 20.8836C22.6302 20.9426 22.8255 21.0545 22.9843 21.209C23.1431 21.3636 23.2603 21.5557 23.3252 21.7676C23.39 21.9795 23.4003 22.2043 23.3551 22.4212C23.3099 22.6382 23.2107 22.8402 23.0666 23.0086C22.9662 23.1313 22.8387 23.229 22.6941 23.2941C22.5495 23.3591 22.3917 23.3898 22.2333 23.3836C21.923 23.3644 21.6184 23.291 21.3333 23.1669C21.028 23.0452 20.709 22.9612 20.3833 22.9169V25.2002C21.0546 25.3834 21.7118 25.6145 22.35 25.8919C22.887 26.1404 23.3517 26.5219 23.7 27.0002C24.111 27.5928 24.3133 28.3051 24.275 29.0252C24.281 29.5542 24.1789 30.0788 23.975 30.5669C23.7855 31.0239 23.5015 31.4357 23.1416 31.7752C22.7801 32.1279 22.3563 32.4105 21.8916 32.6086C21.4158 32.8143 20.9087 32.9382 20.3916 32.9752V33.9419C20.3778 34.0438 20.3343 34.1395 20.2666 34.2169C20.2242 34.2559 20.1742 34.2856 20.1197 34.3043C20.0652 34.3229 20.0074 34.33 19.95 34.3252C19.7416 34.3252 19.6166 34.2586 19.5583 34.1252C19.501 33.9306 19.4757 33.728 19.4833 33.5252V32.9919C18.9233 32.9761 18.3656 32.9119 17.8166 32.8002C17.2968 32.7033 16.803 32.4989 16.3666 32.2002C16.1806 32.0852 16.0271 31.9245 15.9206 31.7335C15.8141 31.5424 15.7583 31.3273 15.7583 31.1086C15.7579 30.8013 15.8706 30.5047 16.075 30.2752C16.1794 30.159 16.3083 30.0673 16.4524 30.0068C16.5965 29.9463 16.7522 29.9184 16.9083 29.9252C17.3348 29.9629 17.7533 30.064 18.15 30.2252C18.5745 30.3737 19.0128 30.4798 19.4583 30.5419ZM19.4583 24.9086V22.9502C19.2094 23.0132 18.9838 23.1462 18.8083 23.3336C18.6392 23.5106 18.5464 23.7471 18.55 23.9919C18.5462 24.0906 18.5645 24.1889 18.6034 24.2797C18.6423 24.3705 18.7009 24.4515 18.775 24.5169C18.9794 24.6844 19.2104 24.8168 19.4583 24.9086ZM20.3833 27.9669V30.4669C20.7108 30.4024 21.0056 30.2255 21.2166 29.9669C21.4159 29.7161 21.5219 29.4039 21.5166 29.0836C21.4916 28.5919 21.125 28.2169 20.3833 27.9669Z" fill="#CB1A14"/>
</g>
</svg>
