<svg width="101" height="81" viewBox="0 0 101 81" fill="none" xmlns="http://www.w3.org/2000/svg">
<g id="Group">
<g id="Group_2">
<path id="Vector" d="M91.7462 4.53687L87.4051 39.0279C87.2729 40.0795 86.5511 40.9618 85.548 41.3018L55.1711 51.5713V40.7472L79.5587 22.3116L85.0848 1.427H89.0024C90.6663 1.427 91.9541 2.88648 91.7462 4.53687Z" fill="#D0D5DD"/>
<path id="Vector_2" d="M55.171 51.8264C55.1191 51.8264 55.0671 51.8106 55.023 51.779C54.9564 51.7315 54.9169 51.6547 54.9169 51.5723V40.7481C54.9169 40.6679 54.9541 40.5934 55.0174 40.5459L79.3361 22.1623L84.8396 1.36248C84.869 1.25064 84.9695 1.17383 85.0859 1.17383H89.0034C89.8699 1.17383 90.6945 1.54661 91.2672 2.19614C91.8399 2.84568 92.1065 3.71098 91.9981 4.5695L87.6569 39.0605C87.5134 40.2003 86.7171 41.1751 85.6281 41.5434L55.2524 51.8129C55.2264 51.8219 55.1981 51.8264 55.171 51.8264ZM55.4252 40.8735V51.2176L85.4654 41.061C86.3703 40.7549 87.0334 39.945 87.152 38.9961L91.4931 4.50511C91.5835 3.79118 91.361 3.07161 90.8854 2.53051C90.4087 1.99055 89.723 1.68103 89.0023 1.68103H85.2802L79.8049 22.377C79.7902 22.4323 79.7574 22.4809 79.7122 22.5148L55.4252 40.8735Z" fill="#F9FAFB"/>
</g>
<g id="Group_3">
<path id="Vector_3" d="M55.1727 40.7482L24.1519 36.4376L48.5395 19.0989L79.5603 22.3115L55.1727 40.7482Z" fill="#D0D5DD"/>
<path id="Vector_4" d="M55.1726 41.0025C55.1613 41.0025 55.1489 41.0014 55.1376 41.0002L24.1168 36.6907C24.014 36.676 23.9293 36.6003 23.9045 36.4998C23.8796 36.3981 23.9191 36.2931 24.0039 36.2321L48.3914 18.8934C48.4423 18.8572 48.5033 18.8414 48.5654 18.8482L79.5862 22.0609C79.6901 22.0722 79.7771 22.1445 79.8053 22.245C79.8336 22.3455 79.7974 22.4529 79.7138 22.5161L55.3262 40.9517C55.2811 40.9844 55.2268 41.0025 55.1726 41.0025ZM24.8206 36.2739L55.1026 40.4817L78.8914 22.4992L48.6083 19.3633L24.8206 36.2739Z" fill="#F9FAFB"/>
</g>
<g id="Group_4">
<path id="Vector_5" d="M49.1877 21.2146L56.9788 22.0223L49.1855 21.2146H49.1877Z" fill="#D0D5DD"/>
<path id="Vector_6" d="M56.9799 22.2765C56.9709 22.2765 56.9618 22.2765 56.9539 22.2754L49.1606 21.4677C49.0262 21.4541 48.9256 21.3366 48.9324 21.2022C48.9403 21.0588 49.0702 20.948 49.2137 20.9627L57.0059 21.7704C57.146 21.7851 57.2465 21.9094 57.2329 22.0494C57.2183 22.1782 57.1076 22.2765 56.9799 22.2765Z" fill="#F9FAFB"/>
</g>
<g id="Group_5">
<path id="Vector_7" d="M74.1429 23.7994L69.2223 27.5204L60.6134 26.6291L65.8051 22.9375H65.8063L74.1429 23.7994Z" fill="#D0D5DD"/>
<path id="Vector_8" d="M69.222 27.7745C69.213 27.7745 69.205 27.7745 69.196 27.7734L60.5871 26.8821C60.4821 26.8708 60.3939 26.7962 60.368 26.6935C60.3408 26.5907 60.3804 26.4833 60.4662 26.4212L65.658 22.7296C65.7077 22.6934 65.7721 22.6776 65.8331 22.6844L74.1698 23.5474C74.2737 23.5587 74.3607 23.631 74.3889 23.7316C74.4172 23.8321 74.381 23.9394 74.2974 24.0027L69.3768 27.7237C69.3316 27.7564 69.2774 27.7745 69.222 27.7745ZM61.3101 26.4461L69.1486 27.2583L73.475 23.9869L65.8749 23.2006L61.3101 26.4461Z" fill="#F9FAFB"/>
</g>
<g id="Group_6">
<path id="Vector_9" d="M51.7859 25.7141L46.5918 29.408L38.7996 28.6003L43.9937 24.9087L51.7859 25.7141Z" fill="#D0D5DD"/>
<path id="Vector_10" d="M46.5915 29.6621C46.5825 29.6621 46.5746 29.6621 46.5655 29.661L38.7733 28.8533C38.6683 28.842 38.5802 28.7674 38.5542 28.6646C38.5271 28.5618 38.5666 28.4545 38.6525 28.3924L43.8465 24.7008C43.8973 24.6646 43.9583 24.6488 44.0193 24.6556L51.8115 25.461C51.9166 25.4723 52.0047 25.5469 52.0307 25.6497C52.0567 25.7525 52.0182 25.8598 51.9324 25.9219L46.7384 29.6158C46.6954 29.6452 46.6435 29.6621 46.5915 29.6621ZM39.4963 28.4173L46.5226 29.1447L51.0897 25.897L44.0634 25.1707L39.4963 28.4173Z" fill="#F9FAFB"/>
</g>
<g id="Group_7">
<path id="Vector_11" d="M46.5919 29.4078L41.3978 33.1005H41.3967L33.6068 32.2929L38.7997 28.6001L46.5919 29.4078Z" fill="#D0D5DD"/>
<path id="Vector_12" d="M41.3977 33.3548C41.3886 33.3548 41.3785 33.3548 41.3706 33.3537L33.5806 32.546C33.4756 32.5347 33.3875 32.4601 33.3615 32.3573C33.3344 32.2545 33.3739 32.1472 33.4598 32.0851L38.6527 28.3912C38.7035 28.3551 38.7645 28.3392 38.8266 28.346L46.6188 29.1537C46.7239 29.165 46.812 29.2396 46.838 29.3423C46.8651 29.4451 46.8255 29.5525 46.7397 29.6146L41.5468 33.3085C41.5027 33.339 41.4508 33.3548 41.3977 33.3548ZM34.3025 32.1099L41.3288 32.8374L45.8947 29.5897L38.8684 28.8623L34.3025 32.1099Z" fill="#F9FAFB"/>
</g>
<g id="Group_8">
<path id="Vector_13" d="M64.3009 31.2412L59.3791 34.9622L50.2235 34.0144L55.4187 30.3206L64.3009 31.2412Z" fill="#D0D5DD"/>
<path id="Vector_14" d="M59.379 35.2163C59.37 35.2163 59.3621 35.2163 59.3531 35.2152L50.1985 34.2674C50.0935 34.2561 50.0054 34.1816 49.9794 34.0788C49.9523 33.976 49.9918 33.8687 50.0777 33.8065L55.2717 30.1126C55.3225 30.0765 55.3835 30.0607 55.4457 30.0675L64.328 30.9881C64.4319 30.9994 64.5189 31.0717 64.5471 31.1722C64.5753 31.2728 64.5392 31.3801 64.4556 31.4433L59.5338 35.1643C59.4875 35.1982 59.4333 35.2163 59.379 35.2163ZM50.9204 33.8314L59.3056 34.7001L63.6332 31.4287L55.4875 30.5848L50.9204 33.8314Z" fill="#F9FAFB"/>
</g>
<g id="Group_9">
<path id="Vector_15" d="M59.3792 34.9622L54.5241 38.6323L45.4938 37.3773L50.2236 34.0144L59.3792 34.9622Z" fill="#D0D5DD"/>
<path id="Vector_16" d="M54.5243 38.8865C54.5131 38.8865 54.5006 38.8854 54.4893 38.8843L45.4591 37.6292C45.3563 37.6146 45.2716 37.5389 45.2467 37.4383C45.2219 37.3367 45.2614 37.2316 45.3461 37.1706L50.0759 33.8077C50.1267 33.7716 50.1877 33.7557 50.2498 33.7625L59.4043 34.7103C59.5083 34.7216 59.5953 34.7939 59.6235 34.8944C59.6517 34.9949 59.6156 35.1023 59.532 35.1655L54.678 38.8357C54.6339 38.8684 54.5797 38.8865 54.5243 38.8865ZM46.1628 37.2135L54.4554 38.3658L58.7108 35.1486L50.2928 34.2765L46.1628 37.2135Z" fill="#F9FAFB"/>
</g>
<g id="Group_10">
<path id="Vector_17" d="M50.2238 34.0145L45.494 37.3774L37.0342 36.2025L41.3969 33.1006H41.398L50.2238 34.0145Z" fill="#D0D5DD"/>
<path id="Vector_18" d="M45.494 37.6316C45.4827 37.6316 45.4702 37.6304 45.4589 37.6293L36.9991 36.4545C36.8963 36.4398 36.8116 36.3641 36.7868 36.2636C36.7619 36.1619 36.8015 36.0569 36.8862 35.9959L41.2488 32.8939C41.2985 32.8577 41.3629 32.8419 41.4239 32.8487L50.2497 33.7626C50.3548 33.7739 50.4429 33.8484 50.4689 33.9512C50.496 34.054 50.4564 34.1613 50.3706 34.2235L45.6408 37.5864C45.5979 37.6157 45.5459 37.6316 45.494 37.6316ZM37.7029 36.0388L45.4284 37.1119L49.5267 34.1975L41.4657 33.3627L37.7029 36.0388Z" fill="#F9FAFB"/>
</g>
<g id="Group_11">
<path id="Vector_19" d="M41.3963 33.1007L37.0337 36.2026L29.5669 35.1645L33.6064 32.293L41.3963 33.1007Z" fill="#D0D5DD"/>
<path id="Vector_20" d="M37.0339 36.4568C37.0226 36.4568 37.0102 36.4557 36.9989 36.4545L29.532 35.4164C29.4292 35.4017 29.3445 35.326 29.3197 35.2255C29.2948 35.1238 29.3344 35.0188 29.4191 34.9578L33.4575 32.0863C33.5083 32.0501 33.5693 32.0343 33.6315 32.0411L41.4214 32.8488C41.5265 32.8601 41.6146 32.9346 41.6405 33.0374C41.6677 33.1402 41.6281 33.2475 41.5423 33.3097L37.1796 36.4116C37.1378 36.441 37.087 36.4568 37.0339 36.4568ZM30.2358 35.0007L36.9684 35.9372L40.6996 33.2848L33.6744 32.5573L30.2358 35.0007Z" fill="#F9FAFB"/>
</g>
<g id="Group_12">
<path id="Vector_21" d="M65.8047 22.9372L56.9811 22.0222L65.8058 22.935H65.808L74.1425 23.7991L65.8058 22.9372H65.8047Z" fill="#D0D5DD"/>
<path id="Vector_22" d="M74.1434 24.0533C74.1344 24.0533 74.1253 24.0533 74.1174 24.0522L65.7875 23.1903C65.7853 23.1903 65.7819 23.1903 65.7796 23.1891L56.9549 22.2741C56.8149 22.2595 56.7143 22.1352 56.7279 21.9951C56.7426 21.855 56.8668 21.7545 57.0069 21.7681L57.0171 21.7692L65.8259 22.6808C65.8282 22.6808 65.8316 22.6808 65.8338 22.6819L74.1694 23.5461C74.3094 23.5608 74.41 23.6851 74.3964 23.8251C74.3817 23.9562 74.271 24.0533 74.1434 24.0533Z" fill="#F9FAFB"/>
</g>
<g id="Group_13">
<path id="Vector_23" d="M48.4299 19.0989L55.9814 0.252197L85.0852 1.42701L79.5602 22.3127L48.4299 19.0989Z" fill="#D0D5DD"/>
<path id="Vector_24" d="M79.5601 22.5668C79.5511 22.5668 79.5432 22.5668 79.5342 22.5657L48.4038 19.353C48.3247 19.3451 48.2536 19.2999 48.2129 19.2322C48.1711 19.1644 48.1643 19.0808 48.1948 19.0062L55.7464 0.159502C55.7859 0.0600942 55.8842 -0.00429509 55.9927 0.00022343L85.0965 1.17504C85.1733 1.17843 85.2444 1.2157 85.2907 1.27783C85.3371 1.33996 85.3517 1.41904 85.3325 1.49359L79.8075 22.3782C79.7759 22.49 79.6742 22.5668 79.5601 22.5668ZM48.7913 18.8809L79.3704 22.037L84.7587 1.66869L56.1508 0.514205L48.7913 18.8809Z" fill="#F9FAFB"/>
</g>
<g id="Group_14">
<path id="Vector_25" d="M51.0991 17.9611L57.5504 1.85938L82.4158 2.86249L77.6951 20.7061L51.0991 17.9611Z" fill="#F7F9FC"/>
<path id="Vector_26" d="M77.6951 20.9604C77.6861 20.9604 77.6782 20.9604 77.6691 20.9593L51.0731 18.2131C50.9941 18.2052 50.9229 18.16 50.8822 18.0923C50.8404 18.0245 50.8337 17.9409 50.8642 17.8663L57.3155 1.7646C57.355 1.66519 57.4533 1.59967 57.5617 1.60532L82.4271 2.60956C82.5039 2.61295 82.5751 2.65023 82.6214 2.71236C82.6677 2.77449 82.6824 2.85356 82.6621 2.92812L77.9414 20.7706C77.9109 20.8836 77.8103 20.9604 77.6951 20.9604ZM51.4606 17.7421L77.5053 20.4306L82.0894 3.10434L57.7199 2.12043L51.4606 17.7421Z" fill="#F9FAFB"/>
</g>
<g id="Group_15">
<path id="Vector_27" d="M24.1518 36.4375V47.2616L55.1714 51.5723V40.747L24.1518 36.4375Z" fill="#667185"/>
<path id="Vector_28" d="M55.1714 51.8265C55.1601 51.8265 55.1477 51.8254 55.1364 51.8243L24.1168 47.5147C23.9914 47.4978 23.8976 47.3893 23.8976 47.2628L23.8965 36.4387C23.8965 36.3653 23.9281 36.2952 23.9835 36.2467C24.0388 36.1981 24.1122 36.1766 24.1857 36.1868L55.2053 40.4963C55.3307 40.5133 55.4244 40.6217 55.4244 40.7482V51.5723C55.4244 51.6458 55.3928 51.7158 55.3375 51.7644C55.2923 51.8039 55.2324 51.8265 55.1714 51.8265ZM24.4059 47.0403L54.9172 51.2798V40.9685L24.4059 36.729V47.0403Z" fill="#F9FAFB"/>
</g>
<g id="Group_16">
<g id="Group_17">
<path id="Vector_29" d="M51.5834 44.2422V45.6339L27.3518 42.5703V41.1775L51.5834 44.2422Z" fill="#D0D5DD"/>
<path id="Vector_30" d="M51.8375 45.9219L27.0975 42.7951V40.8894L51.8375 44.0185V45.9219ZM27.6059 42.3466L51.3292 45.3458V44.4658L27.6059 41.4655V42.3466Z" fill="#D0D5DD"/>
</g>
</g>
<g id="Group_18">
<path id="Vector_31" d="M0.254608 71.9169C4.88948 70.7365 9.52661 69.5707 13.7763 67.2967C18.061 65.0047 20.7969 61.6418 22.122 56.964C23.1714 53.2566 23.6323 49.3729 25.7763 46.1094C27.3296 43.7451 29.7346 42.176 29.7346 42.176L49.5855 44.6861C47.5172 46.9069 45.738 49.4384 44.2029 52.049C42.7965 54.4404 41.5381 56.6839 40.8162 59.3871C40.0808 62.1411 39.6346 65.016 38.3062 67.5712C36.9743 70.1321 34.819 72.1937 32.4197 73.7977C27.7645 76.9099 22.2982 78.8133 16.9076 80.1858C16.9076 80.1847 0.254608 71.9169 0.254608 71.9169Z" fill="#E4E7EC"/>
<path id="Vector_32" d="M16.9074 80.4389C16.869 80.4389 16.8295 80.4299 16.7945 80.413L0.141473 72.1452C0.046584 72.0978 -0.0098973 71.9961 0.001399 71.891C0.0126953 71.7849 0.0883805 71.6979 0.191177 71.6719L0.348195 71.6323C4.83847 70.4892 9.48238 69.3076 13.6564 67.0743C17.8902 64.8094 20.5799 61.4804 21.8767 56.8963C22.1444 55.9508 22.3782 54.9771 22.603 54.0339C23.2627 51.2809 23.9439 48.4343 25.5627 45.9706C27.1272 43.5893 29.4949 42.0281 29.5943 41.9638C29.6451 41.931 29.705 41.9163 29.7649 41.9242L49.6159 44.4343C49.7108 44.4467 49.791 44.5099 49.8226 44.6003C49.8553 44.6896 49.835 44.7901 49.7695 44.8601C47.8853 46.8833 46.0858 49.3459 44.4207 52.179C42.9996 54.5975 41.7661 56.8139 41.06 59.4538C40.877 60.1372 40.7099 60.8421 40.5472 61.5233C40.0524 63.5984 39.5418 65.7436 38.5297 67.6899C37.2973 70.0588 35.2888 72.1859 32.5585 74.0102C28.5155 76.7134 23.561 78.7547 16.9673 80.4333C16.9492 80.4367 16.9278 80.4389 16.9074 80.4389ZM0.981918 71.995L16.9357 79.9159C23.4254 78.2565 28.302 76.2446 32.2783 73.5866C34.9363 71.8097 36.8883 69.747 38.0801 67.4538C39.0629 65.564 39.5667 63.4493 40.0547 61.4047C40.2173 60.7201 40.3868 60.0119 40.5709 59.3216C41.2928 56.6196 42.5433 54.3716 43.9847 51.9203C45.5707 49.2228 47.2787 46.8551 49.0669 44.8771L29.7988 42.4416C29.3819 42.7285 27.3418 44.1925 25.9897 46.2507C24.4195 48.641 23.7485 51.4436 23.0989 54.1536C22.8719 55.1014 22.6369 56.0807 22.3669 57.0353C21.0295 61.7583 18.2596 65.1889 13.897 67.5228C9.82579 69.6984 5.34229 70.8823 0.981918 71.995Z" fill="#F9FAFB"/>
</g>
<g id="Group_19">
<path id="Vector_33" d="M60.613 26.6289L55.419 30.3205L46.592 29.4078L51.7861 25.7139L60.613 26.6289Z" fill="#D0D5DD"/>
<path id="Vector_34" d="M55.4186 30.5747C55.4096 30.5747 55.4017 30.5747 55.3926 30.5736L46.5657 29.6597C46.4606 29.6485 46.3725 29.5739 46.3466 29.4711C46.3194 29.3683 46.359 29.261 46.4448 29.1989L51.6389 25.505C51.6897 25.4688 51.7507 25.453 51.8128 25.4598L60.6398 26.3748C60.7448 26.3861 60.8329 26.4606 60.8589 26.5634C60.8849 26.6662 60.8465 26.7735 60.7606 26.8357L55.5666 30.5273C55.5225 30.5589 55.4706 30.5747 55.4186 30.5747ZM47.2875 29.2237L55.3486 30.0585L59.9157 26.812L51.8546 25.976L47.2875 29.2237Z" fill="#F9FAFB"/>
</g>
<g id="Group_20">
<path id="Vector_35" d="M65.807 22.9379V22.9351H65.8084" fill="#D0D5DD"/>
<path id="Vector_36" d="M65.807 23.1905C65.6669 23.1905 65.5528 23.0775 65.5528 22.9374V22.9363C65.5528 22.7962 65.6669 22.6821 65.807 22.6821C65.9471 22.6821 66.0623 22.7962 66.0623 22.9363C66.0623 23.0391 66.0013 23.1272 65.9143 23.1679C65.8804 23.1826 65.8443 23.1905 65.807 23.1905Z" fill="#F9FAFB"/>
</g>
<g id="Group_21">
<path id="Vector_37" d="M56.9786 22.0223L51.7857 25.7139L43.9935 24.9085L49.1853 21.2146L56.9786 22.0223Z" fill="#D0D5DD"/>
<path id="Vector_38" d="M51.7858 25.9681C51.7767 25.9681 51.7688 25.9681 51.7598 25.967L43.9676 25.1615C43.8626 25.1502 43.7745 25.0757 43.7485 24.974C43.7214 24.8712 43.7609 24.7639 43.8467 24.7018L49.0385 21.0079C49.0894 20.9718 49.1504 20.9559 49.2125 20.9627L57.0058 21.7704C57.1109 21.7817 57.199 21.8563 57.225 21.959C57.2521 22.0618 57.2125 22.1692 57.1267 22.2313L51.9338 25.9229C51.8897 25.9512 51.8389 25.9681 51.7858 25.9681ZM44.6906 24.7244L51.7169 25.4507L56.2828 22.2053L49.2554 21.4778L44.6906 24.7244Z" fill="#F9FAFB"/>
</g>
<g id="Group_22">
<path id="Vector_39" d="M65.8047 22.9375L60.6129 26.6291L51.786 25.7141L56.9789 22.0225H56.9811L65.8047 22.9375Z" fill="#D0D5DD"/>
<path id="Vector_40" d="M60.6126 26.8832C60.6035 26.8832 60.5956 26.8832 60.5866 26.8821L51.7597 25.9671C51.6546 25.9558 51.5665 25.8812 51.5405 25.7784C51.5134 25.6756 51.553 25.5683 51.6388 25.5062L56.8317 21.8145C56.8814 21.7784 56.9458 21.7626 57.0068 21.7694L65.8315 22.6844C65.9365 22.6957 66.0246 22.7702 66.0506 22.873C66.0777 22.9758 66.0382 23.0831 65.9523 23.1452L60.7606 26.8369C60.7165 26.8674 60.6657 26.8832 60.6126 26.8832ZM52.4826 25.531L60.5437 26.3669L65.1085 23.1204L57.0486 22.2845L52.4826 25.531Z" fill="#F9FAFB"/>
</g>
<g id="Group_23">
<path id="Vector_41" d="M69.2221 27.5204L64.3014 31.2414L55.4191 30.3208L60.6132 26.6292L69.2221 27.5204Z" fill="#D0D5DD"/>
<path id="Vector_42" d="M64.3011 31.4955C64.292 31.4955 64.2841 31.4955 64.2751 31.4944L55.3928 30.5737C55.2878 30.5625 55.1997 30.4879 55.1737 30.3851C55.1466 30.2823 55.1861 30.175 55.272 30.1129L60.466 26.4212C60.5168 26.3851 60.5778 26.3693 60.64 26.376L69.2489 27.2673C69.3528 27.2786 69.4398 27.3509 69.468 27.4515C69.4963 27.552 69.4601 27.6593 69.3765 27.7226L64.4558 31.4436C64.4095 31.4775 64.3564 31.4955 64.3011 31.4955ZM56.1158 30.1377L64.2277 30.9782L68.5541 27.7068L60.6829 26.8912L56.1158 30.1377Z" fill="#F9FAFB"/>
</g>
<g id="Group_24">
<path id="Vector_43" d="M55.4191 30.3205L50.2239 34.0143L41.3981 33.1005L46.5921 29.4077L55.4191 30.3205Z" fill="#D0D5DD"/>
<path id="Vector_44" d="M50.2237 34.2686C50.2147 34.2686 50.2068 34.2686 50.1977 34.2675L41.3719 33.3536C41.2669 33.3423 41.1788 33.2677 41.1528 33.1649C41.1268 33.0622 41.1652 32.9548 41.2511 32.8927L46.444 29.1988C46.4948 29.1627 46.5558 29.1469 46.6179 29.1536L55.4449 30.0675C55.5499 30.0788 55.638 30.1534 55.664 30.2561C55.6911 30.3589 55.6516 30.4663 55.5657 30.5284L50.3717 34.2223C50.3288 34.2517 50.2768 34.2686 50.2237 34.2686ZM42.0949 32.9176L50.1548 33.7524L54.7219 30.5047L46.6609 29.6699L42.0949 32.9176Z" fill="#F9FAFB"/>
</g>
<g id="Group_25">
<path id="Vector_45" d="M75.84 6.88521C75.8309 6.88521 75.8208 6.88521 75.8117 6.88408L62.3466 6.04703C62.0969 6.03121 61.9083 5.81658 61.9241 5.56806C61.9399 5.31842 62.1545 5.12864 62.403 5.14558L75.8694 5.98377C76.119 5.99958 76.3076 6.21421 76.2918 6.46273C76.276 6.70108 76.0772 6.88521 75.84 6.88521Z" fill="#D0D5DD"/>
</g>
<g id="Group_26">
<path id="Vector_46" d="M74.4675 10.2427C74.4585 10.2427 74.4483 10.2427 74.4393 10.2415L60.973 9.40334C60.7233 9.38753 60.5347 9.1729 60.5505 8.92438C60.5663 8.67473 60.7821 8.48609 61.0295 8.5019L74.4958 9.34009C74.7454 9.3559 74.9341 9.57053 74.9183 9.81905C74.9036 10.0574 74.7048 10.2427 74.4675 10.2427Z" fill="#D0D5DD"/>
</g>
<g id="Group_27">
<path id="Vector_47" d="M42.1681 50.5534C42.1444 50.5534 42.1195 50.5512 42.0947 50.5478L27.2785 48.1225C27.0322 48.0818 26.865 47.8502 26.9057 47.604C26.9463 47.3577 27.1779 47.1905 27.4242 47.2312L42.2404 49.6565C42.4867 49.6972 42.6539 49.9287 42.6132 50.175C42.577 50.3953 42.3861 50.5534 42.1681 50.5534Z" fill="#D0D5DD"/>
</g>
<g id="Group_28">
<path id="Vector_48" d="M40.9154 53.1695C40.8917 53.1695 40.8691 53.1673 40.8453 53.1639L26.1285 50.864C25.8823 50.8256 25.7128 50.594 25.7524 50.3477C25.7908 50.1015 26.0223 49.932 26.2686 49.9715L40.9854 52.2715C41.2317 52.3099 41.4011 52.5415 41.3616 52.7877C41.3266 53.0102 41.1334 53.1695 40.9154 53.1695Z" fill="#D0D5DD"/>
</g>
<g id="Group_29">
<path id="Vector_49" d="M39.4682 56.0695C39.4445 56.0695 39.4207 56.0672 39.3959 56.0638L25.3139 53.8125C25.0677 53.7729 24.8994 53.5414 24.9389 53.2951C24.9784 53.0488 25.21 52.8805 25.4563 52.9201L39.5382 55.1714C39.7845 55.211 39.9528 55.4425 39.9133 55.6888C39.8782 55.9113 39.6862 56.0695 39.4682 56.0695Z" fill="#D0D5DD"/>
</g>
<g id="Group_30">
<path id="Vector_50" d="M38.4801 58.9691C38.4564 58.9691 38.4326 58.9669 38.4078 58.9635L24.5676 56.7517C24.3213 56.7121 24.153 56.4806 24.1925 56.2343C24.2321 55.9881 24.4636 55.8197 24.7099 55.8593L38.5501 58.0711C38.7964 58.1106 38.9647 58.3422 38.9252 58.5885C38.8901 58.8099 38.6981 58.9691 38.4801 58.9691Z" fill="#D0D5DD"/>
</g>
<g id="Group_31">
<path id="Vector_51" d="M73.0949 13.5986C73.0859 13.5986 73.0757 13.5986 73.0666 13.5975L59.6003 12.7593C59.3507 12.7435 59.162 12.5289 59.1779 12.2803C59.1937 12.0307 59.4083 11.842 59.6568 11.8579L73.1231 12.696C73.3728 12.7119 73.5614 12.9265 73.5456 13.175C73.5309 13.4145 73.3321 13.5986 73.0949 13.5986Z" fill="#D0D5DD"/>
</g>
<g id="Group_32">
<path id="Vector_52" d="M71.7226 16.9548C71.7135 16.9548 71.7034 16.9548 71.6943 16.9537L58.228 16.1155C57.9784 16.0997 57.7897 15.8851 57.8055 15.6365C57.8213 15.3869 58.036 15.1982 58.2845 15.2141L71.7508 16.0522C72.0005 16.0681 72.1891 16.2827 72.1733 16.5312C72.1586 16.7707 71.9587 16.9548 71.7226 16.9548Z" fill="#D0D5DD"/>
</g>
<g id="Group_33">
<g id="Group_34">
<g id="Group_35">
<path id="Vector_53" d="M96.5915 12.0522L96.8434 13.6258C96.9948 14.5691 97.642 15.3078 98.574 15.5993L100.129 16.0839L98.4192 16.5685C97.3958 16.86 96.5124 17.5976 96.0594 18.542L95.306 20.1155L95.0529 18.542C94.9016 17.5987 94.2543 16.86 93.3223 16.5685L91.768 16.0839L93.4771 15.5993C94.5005 15.3078 95.3839 14.5702 95.8369 13.6258L96.5915 12.0522Z" fill="#D0D5DD"/>
</g>
</g>
<g id="Group_36">
<g id="Group_37">
<path id="Vector_54" d="M47.2526 5.86865L47.4457 7.0751C47.5621 7.79806 48.058 8.36513 48.773 8.58767L49.9659 8.95932L48.6544 9.3321C47.8693 9.55463 47.1927 10.1206 46.8448 10.8435L46.2664 12.0511L46.0732 10.8435C45.9569 10.1206 45.4598 9.55463 44.7459 9.3321L43.5542 8.95932L44.8645 8.58767C45.6496 8.36513 46.3263 7.79806 46.6742 7.0751L47.2526 5.86865Z" fill="#D0D5DD"/>
</g>
</g>
<g id="Group_38">
<g id="Group_39">
<path id="Vector_55" d="M79.8349 44.9878L79.9422 45.6611C80.0077 46.0632 80.2845 46.3795 80.6821 46.5038L81.3463 46.7116L80.6166 46.9195C80.1783 47.0437 79.801 47.36 79.6078 47.7622L79.2859 48.4354L79.1786 47.7622C79.113 47.36 78.8374 47.0437 78.4398 46.9195L77.7756 46.7116L78.5064 46.5038C78.9447 46.3795 79.3209 46.0632 79.5141 45.6611L79.8349 44.9878Z" fill="#D0D5DD"/>
</g>
</g>
<g id="Group_40">
<g id="Group_41">
<path id="Vector_56" d="M19.1025 46.7104L19.2098 47.3826C19.2742 47.7859 19.5509 48.101 19.9497 48.2253L20.6139 48.4331L19.8842 48.641C19.4459 48.7652 19.0686 49.0815 18.8754 49.4848L18.5535 50.157L18.4462 49.4848C18.3829 49.0815 18.105 48.7664 17.7074 48.641L17.0432 48.4331L17.7729 48.2253C18.2112 48.1022 18.5885 47.7859 18.7805 47.3826L19.1025 46.7104Z" fill="#D0D5DD"/>
</g>
</g>
</g>
</g>
</svg>
