<svg width="32" height="32" viewBox="0 0 32 32" fill="none" xmlns="http://www.w3.org/2000/svg">
<path d="M22.854 6.008C20.164 6.082 18.079 6.812 16.049 7.518C13.878 8.272 11.829 8.983 8.99 9.012C7.093 9.042 5.193 8.714 3.326 8.068L2 7.61V24.692L2.666 24.929C4.405 25.544 6.183 25.899 7.953 25.983C8.234 25.996 8.509 26.003 8.779 26.003C11.792 26.003 14.099 25.203 16.336 24.431C18.694 23.615 20.918 22.844 23.953 22.987C25.5617 23.0696 27.1496 23.3877 28.666 23.931L30 24.403V7.314L29.342 7.074C27.6404 6.4543 25.8541 6.0982 24.045 6.018C23.6482 6.00039 23.251 5.99705 22.854 6.008ZM22.908 7.994C23.248 7.984 23.596 7.984 23.957 7.998C24.331 8.014 24.705 8.048 25.078 8.092C25.2301 8.71945 25.6196 9.2635 26.1645 9.6098C26.7094 9.95609 27.3673 10.0777 28 9.949V19.051C27.6724 18.9843 27.3348 18.9842 27.0071 19.0505C26.6795 19.1169 26.3685 19.2484 26.0927 19.4373C25.8169 19.6262 25.5818 19.8686 25.4015 20.1501C25.2212 20.4316 25.0993 20.7465 25.043 21.076C24.7118 21.0419 24.3796 21.0173 24.047 21.002C20.632 20.852 18.114 21.711 15.68 22.555C13.319 23.373 11.082 24.146 8.049 24.002C7.67125 23.9823 7.29434 23.9489 6.919 23.902C6.76556 23.2763 6.37602 22.7342 5.83194 22.3892C5.28786 22.0442 4.6314 21.923 4 22.051V12.949C4.32955 13.0161 4.66926 13.0158 4.99868 12.9481C5.32811 12.8805 5.64044 12.7468 5.91688 12.5553C6.19333 12.3638 6.42816 12.1183 6.60725 11.8337C6.78635 11.549 6.90599 11.2311 6.959 10.899C7.644 10.97 8.329 11.011 9.012 11C12.177 10.968 14.478 10.167 16.705 9.393C18.666 8.71 20.535 8.068 22.908 7.994ZM16 11C13.794 11 12 13.243 12 16C12 18.757 13.794 21 16 21C18.206 21 20 18.757 20 16C20 13.243 18.206 11 16 11ZM16 13C17.084 13 18 14.374 18 16C18 17.626 17.084 19 16 19C14.916 19 14 17.626 14 16C14 14.374 14.916 13 16 13ZM23.5 13C23.1022 13 22.7206 13.158 22.4393 13.4393C22.158 13.7206 22 14.1022 22 14.5C22 14.8978 22.158 15.2794 22.4393 15.5607C22.7206 15.842 23.1022 16 23.5 16C23.8978 16 24.2794 15.842 24.5607 15.5607C24.842 15.2794 25 14.8978 25 14.5C25 14.1022 24.842 13.7206 24.5607 13.4393C24.2794 13.158 23.8978 13 23.5 13ZM8.5 16C8.10218 16 7.72064 16.158 7.43934 16.4393C7.15804 16.7206 7 17.1022 7 17.5C7 17.8978 7.15804 18.2794 7.43934 18.5607C7.72064 18.842 8.10218 19 8.5 19C8.89782 19 9.27936 18.842 9.56066 18.5607C9.84196 18.2794 10 17.8978 10 17.5C10 17.1022 9.84196 16.7206 9.56066 16.4393C9.27936 16.158 8.89782 16 8.5 16Z" fill="#40B768"/>
</svg>
