<svg width="138" height="122" viewBox="0 0 138 122" fill="none" xmlns="http://www.w3.org/2000/svg">
<g id="icon / shield-tick">
<g id="icon" filter="url(#filter0_d_59_12099)">
<path d="M85.7273 65.3747C88.0053 63.0966 88.0053 59.4032 85.7273 57.1251C83.4492 54.8471 79.7557 54.8471 77.4777 57.1251L66.1684 68.4344L64.524 66.7901C62.246 64.512 58.5525 64.512 56.2744 66.7901C53.9964 69.0681 53.9964 72.7616 56.2744 75.0396L62.0436 80.8088C64.3216 83.0868 68.0151 83.0868 70.2931 80.8088L85.7273 65.3747Z" fill="#D42620"/>
<path fill-rule="evenodd" clip-rule="evenodd" d="M78.6779 11.776C73.1078 9.54438 66.8922 9.54439 61.3221 11.776L40.1671 20.2518C40.1013 20.2781 40.036 20.3057 39.9712 20.3344L30.9439 24.3389C23.0268 27.8509 17.4992 35.5836 17.5 44.5882C17.501 56.0636 18.3283 75.487 23.7233 88.8139C27.3105 97.6752 33.7713 105.355 40.3377 111.493C46.9512 117.675 53.997 122.591 59.1795 125.864C65.8209 130.057 74.1791 130.057 80.8205 125.864C86.003 122.591 93.0488 117.675 99.6623 111.493C106.229 105.355 112.69 97.6752 116.277 88.8139C121.672 75.487 122.499 56.0636 122.5 44.5882C122.501 35.5836 116.973 27.8509 109.056 24.3389L100.029 20.3344C99.964 20.3057 99.8987 20.2781 99.8329 20.2518L78.6779 11.776ZM65.661 22.6058C68.4461 21.49 71.5539 21.49 74.3389 22.6058L95.3953 31.042L104.325 35.0034C108.343 36.7858 110.834 40.5351 110.833 44.5872C110.832 56.142 109.909 73.4524 105.463 84.4361C102.768 91.093 97.6426 97.4114 91.6956 102.97C85.7958 108.485 79.4009 112.962 74.5916 115.999C71.7553 117.79 68.2447 117.79 65.4084 115.999C60.5991 112.962 54.2042 108.485 48.3044 102.97C42.3574 97.4114 37.2323 91.093 34.5374 84.4361C30.091 73.4524 29.1676 56.142 29.1667 44.5872C29.1663 40.5351 31.6566 36.7858 35.6746 35.0034L44.6047 31.042L65.661 22.6058Z" fill="#D42620"/>
</g>
</g>
<defs>
<filter id="filter0_d_59_12099" x="13.5" y="10.1023" width="109" height="126.907" filterUnits="userSpaceOnUse" color-interpolation-filters="sRGB">
<feFlood flood-opacity="0" result="BackgroundImageFix"/>
<feColorMatrix in="SourceAlpha" type="matrix" values="0 0 0 0 0 0 0 0 0 0 0 0 0 0 0 0 0 0 127 0" result="hardAlpha"/>
<feOffset dx="-4" dy="8"/>
<feComposite in2="hardAlpha" operator="out"/>
<feColorMatrix type="matrix" values="0 0 0 0 0.960784 0 0 0 0 0.4 0 0 0 0 0.188235 0 0 0 0.37 0"/>
<feBlend mode="normal" in2="BackgroundImageFix" result="effect1_dropShadow_59_12099"/>
<feBlend mode="normal" in="SourceGraphic" in2="effect1_dropShadow_59_12099" result="shape"/>
</filter>
</defs>
</svg>
