<svg width="32" height="32" viewBox="0 0 32 32" fill="none" xmlns="http://www.w3.org/2000/svg">
<g id="solar:download-outline">
<path id="Vector" fill-rule="evenodd" clip-rule="evenodd" d="M16 1.66675C16.2652 1.66675 16.5196 1.7721 16.7071 1.95964C16.8946 2.14718 17 2.40153 17 2.66675V17.2974L19.24 14.6827C19.3254 14.5829 19.4297 14.5009 19.5468 14.4414C19.664 14.3819 19.7917 14.3461 19.9227 14.3359C20.0537 14.3258 20.1854 14.3415 20.3103 14.3823C20.4352 14.423 20.5509 14.488 20.6507 14.5734C20.7505 14.6589 20.8325 14.7631 20.892 14.8803C20.9515 14.9974 20.9873 15.1251 20.9975 15.2561C21.0076 15.3871 20.9919 15.5188 20.9511 15.6437C20.9104 15.7686 20.8454 15.8843 20.76 15.9841L16.76 20.6507C16.6661 20.7605 16.5496 20.8487 16.4184 20.9091C16.2872 20.9695 16.1444 21.0008 16 21.0008C15.8555 21.0008 15.7128 20.9695 15.5816 20.9091C15.4504 20.8487 15.3339 20.7605 15.24 20.6507L11.24 15.9841C11.1545 15.8843 11.0896 15.7686 11.0488 15.6437C11.0081 15.5188 10.9923 15.3871 11.0025 15.2561C11.0127 15.1251 11.0485 14.9974 11.108 14.8803C11.1675 14.7631 11.2495 14.6589 11.3493 14.5734C11.4491 14.488 11.5648 14.423 11.6897 14.3823C11.8146 14.3415 11.9463 14.3258 12.0773 14.3359C12.2083 14.3461 12.336 14.3819 12.4531 14.4414C12.5703 14.5009 12.6745 14.5829 12.76 14.6827L15 17.2961V2.66675C15 2.40153 15.1053 2.14718 15.2929 1.95964C15.4804 1.7721 15.7348 1.66675 16 1.66675ZM9.32799 11.0027C9.59321 11.0013 9.84812 11.1053 10.0367 11.2919C10.2252 11.4784 10.3319 11.7322 10.3333 11.9974C10.3347 12.2626 10.2307 12.5175 10.0442 12.7061C9.85767 12.8946 9.60387 13.0013 9.33866 13.0027C7.88132 13.0107 6.84799 13.0481 6.06266 13.1921C5.30799 13.3321 4.86932 13.5547 4.54532 13.8787C4.17599 14.2481 3.93599 14.7667 3.80399 15.7454C3.66932 16.7521 3.66666 18.0867 3.66666 20.0001V21.3334C3.66666 23.2481 3.66932 24.5827 3.80399 25.5894C3.93599 26.5681 4.17732 27.0854 4.54532 27.4561C4.91466 27.8241 5.43199 28.0641 6.41199 28.1961C7.41732 28.3321 8.75332 28.3334 10.6667 28.3334H21.3333C23.2467 28.3334 24.5813 28.3321 25.5893 28.1961C26.568 28.0641 27.0853 27.8241 27.4547 27.4548C27.824 27.0854 28.064 26.5681 28.196 25.5894C28.3307 24.5827 28.3333 23.2481 28.3333 21.3334V20.0001C28.3333 18.0867 28.3307 16.7521 28.196 15.7441C28.064 14.7667 27.8227 14.2481 27.4547 13.8787C27.1293 13.5547 26.692 13.3321 25.9373 13.1921C25.152 13.0481 24.1187 13.0107 22.6613 13.0027C22.53 13.002 22.4001 12.9755 22.279 12.9246C22.158 12.8737 22.0481 12.7994 21.9558 12.7061C21.8634 12.6127 21.7903 12.5021 21.7407 12.3805C21.6911 12.2589 21.666 12.1287 21.6667 11.9974C21.6674 11.8661 21.6939 11.7362 21.7448 11.6151C21.7957 11.4941 21.87 11.3842 21.9633 11.2919C22.0567 11.1995 22.1673 11.1264 22.2889 11.0768C22.4105 11.0272 22.5407 11.002 22.672 11.0027C24.1147 11.0107 25.316 11.0454 26.2987 11.2254C27.3093 11.4121 28.1693 11.7654 28.8693 12.4654C29.672 13.2667 30.016 14.2787 30.1787 15.4787C30.3333 16.6334 30.3333 18.1041 30.3333 19.9267V21.4067C30.3333 23.2308 30.3333 24.7001 30.1787 25.8561C30.016 27.0561 29.672 28.0667 28.8693 28.8694C28.0667 29.6721 27.056 30.0161 25.856 30.1788C24.7 30.3334 23.2293 30.3334 21.4067 30.3334H10.5933C8.77066 30.3334 7.29999 30.3334 6.14399 30.1788C4.94399 30.0174 3.93332 29.6721 3.13066 28.8694C2.32799 28.0667 1.98399 27.0561 1.82266 25.8561C1.66666 24.7001 1.66666 23.2294 1.66666 21.4067V19.9267C1.66666 18.1041 1.66666 16.6334 1.82266 15.4774C1.98266 14.2774 2.32932 13.2667 3.13066 12.4641C3.83066 11.7654 4.69066 11.4107 5.70132 11.2254C6.68399 11.0454 7.88532 11.0107 9.32799 11.0027Z" fill="#BA9248"/>
</g>
</svg>
