<svg width="150" height="150" viewBox="0 0 150 150" fill="none" xmlns="http://www.w3.org/2000/svg">
<g id="bottle-with-popping-cork">
<g id="Group">
<path id="Vector" opacity="0.15" d="M64.125 142.188C64.125 143.431 67.0882 144.623 72.3626 145.502C77.6371 146.381 84.7908 146.875 92.25 146.875C99.7092 146.875 106.863 146.381 112.137 145.502C117.412 144.623 120.375 143.431 120.375 142.188C120.375 140.944 117.412 139.752 112.137 138.873C106.863 137.994 99.7092 137.5 92.25 137.5C84.7908 137.5 77.6371 137.994 72.3626 138.873C67.0882 139.752 64.125 140.944 64.125 142.188Z" fill="#45413C"/>
<path id="Vector_2" d="M120.688 142.188C131.762 133.493 140.272 121.959 145.312 108.812L138.688 102.188C132.203 95.7066 124.166 90.9945 115.344 88.5C106.515 86.0001 98.4693 81.2891 91.9688 74.8125L77.25 60.0625L67.5938 69.75L82.3125 84.375C88.7934 90.8599 93.5055 98.8964 96 107.719C98.4755 116.604 103.188 124.706 109.687 131.25L120.688 142.188Z" fill="#46B000"/>
<path id="Vector_3" d="M91.9688 85.4375C98.4693 91.9141 106.515 96.6251 115.344 99.125C124.171 101.608 132.21 106.322 138.688 112.812L142 116.125C143.22 113.736 144.316 111.284 145.281 108.781L138.688 102.188C132.203 95.7066 124.166 90.9945 115.344 88.5C106.515 86.0001 98.4693 81.2891 91.9688 74.8125L77.25 60.0625L71.875 65.375L91.9688 85.4375Z" fill="#6DD627"/>
<path id="Vector_4" d="M115.344 88.5C106.515 86.0001 98.4693 81.2891 91.9688 74.8125L77.25 60.0625L67.5938 69.75L82.3125 84.375C88.7934 90.8599 93.5055 98.8964 96 107.719C96 107.719 96 108.031 96 108.156L111.625 105.75C112.036 105.685 112.416 105.493 112.713 105.202C113.01 104.911 113.208 104.534 113.281 104.125L115.656 88.5H115.344Z" fill="#FFE500"/>
<path id="Vector_5" d="M114.188 98.7812L115.75 88.625H115.344C106.515 86.1251 98.4693 81.4141 91.9688 74.9375L77.25 60.1875L71.875 65.375L91.9062 85.4375C98.1341 91.6358 105.783 96.2168 114.188 98.7812Z" fill="#FFF48C"/>
<path id="Vector_6" d="M115.344 88.5C106.515 86.0001 98.4693 81.2891 91.9688 74.8125L77.25 60.0625L67.5938 69.75L82.3125 84.375C88.7934 90.8599 93.5055 98.8964 96 107.719C96 107.719 96 108.031 96 108.156L111.625 105.75C112.036 105.685 112.416 105.493 112.713 105.202C113.01 104.911 113.208 104.534 113.281 104.125L115.656 88.5H115.344Z" stroke="#45413C" stroke-width="0.5" stroke-linecap="round" stroke-linejoin="round"/>
<path id="Vector_7" d="M120.687 142.188C131.762 133.493 140.272 121.959 145.313 108.813L138.688 102.188C132.203 95.7066 124.166 90.9945 115.344 88.5C106.515 86.0001 98.4693 81.2891 91.9688 74.8125L77.25 60.0625L67.5938 69.75L82.3125 84.375C88.7934 90.8599 93.5055 98.8964 96 107.719C98.4755 116.604 103.188 124.706 109.687 131.25L120.687 142.188Z" stroke="#45413C" stroke-width="0.5" stroke-linecap="round" stroke-linejoin="round"/>
<path id="Vector_8" d="M120.687 142.188C131.762 133.493 140.272 121.959 145.312 108.813L144.969 108.469L115.969 137.5L120.687 142.188Z" fill="#FFE500" stroke="#45413C" stroke-width="0.5" stroke-linecap="round" stroke-linejoin="round"/>
<path id="Vector_9" d="M66.1962 66.9835L74.4826 58.6971C74.8459 58.3337 75.3388 58.1296 75.8526 58.1296C76.3665 58.1296 76.8593 58.3337 77.2226 58.6971L79.9848 61.4592C80.1664 61.6409 80.2685 61.8873 80.2685 62.1442C80.2685 62.4012 80.1664 62.6476 79.9848 62.8292L70.3283 72.4857C70.1467 72.6673 69.9003 72.7694 69.6433 72.7694C69.3864 72.7694 69.14 72.6673 68.9583 72.4857L66.1962 69.7235C65.8328 69.3602 65.6287 68.8674 65.6287 68.3535C65.6287 67.8397 65.8328 67.3469 66.1962 66.9835Z" fill="#46B000" stroke="#45413C" stroke-width="0.5" stroke-linecap="round" stroke-linejoin="round"/>
<path id="Vector_10" d="M68.75 89.125C68.6752 89.8478 68.335 90.5172 67.7954 91.0039C67.2557 91.4906 66.5548 91.7599 65.8281 91.7599C65.1014 91.7599 64.4005 91.4906 63.8609 91.0039C63.3212 90.5172 62.9811 89.8478 62.9062 89.125C63.5038 87.1256 64.422 85.2364 65.625 83.5313C65.6749 83.4502 65.7435 83.3824 65.8251 83.3335C65.9067 83.2845 65.9988 83.2559 66.0938 83.25C66.1941 83.2508 66.2925 83.2771 66.38 83.3262C66.4674 83.3754 66.541 83.4459 66.5938 83.5313C67.5997 85.272 68.3273 87.1594 68.75 89.125Z" fill="white"/>
<path id="Vector_11" d="M68.75 89.125C68.6752 89.8478 68.335 90.5172 67.7954 91.0039C67.2557 91.4906 66.5548 91.7599 65.8281 91.7599C65.1014 91.7599 64.4005 91.4906 63.8609 91.0039C63.3212 90.5172 62.9811 89.8478 62.9062 89.125C63.5038 87.1256 64.422 85.2364 65.625 83.5313C65.6749 83.4502 65.7435 83.3824 65.8251 83.3335C65.9067 83.2845 65.9988 83.2559 66.0938 83.25C66.1941 83.2508 66.2925 83.2771 66.38 83.3262C66.4674 83.3754 66.541 83.4459 66.5938 83.5313C67.5997 85.272 68.3273 87.1594 68.75 89.125Z" stroke="#45413C" stroke-width="0.5" stroke-linecap="round" stroke-linejoin="round"/>
<path id="Vector_12" d="M111.469 52.7812C110.286 54.6567 108.656 56.2093 106.725 57.3001C104.794 58.3908 102.623 58.9856 100.406 59.0312L96.5 52.1563C98.7105 52.1 100.873 51.5005 102.797 50.4104C104.721 49.3204 106.347 47.7735 107.531 45.9062L111.469 52.7812Z" fill="#6DD627" stroke="#45413C" stroke-width="0.5" stroke-linecap="round" stroke-linejoin="round"/>
<path id="Vector_13" d="M84.5312 127.125C83.569 128.642 82.2467 129.898 80.6821 130.782C79.1174 131.665 77.3588 132.148 75.5625 132.188L72.4375 126.594C74.2088 126.537 75.9389 126.045 77.4756 125.162C79.0123 124.28 80.3085 123.033 81.25 121.531L84.5312 127.125Z" fill="#FF6242" stroke="#45413C" stroke-width="0.5" stroke-linecap="round" stroke-linejoin="round"/>
<path id="Vector_14" d="M102.875 20.6562C103.571 22.4714 103.81 24.4301 103.57 26.3594C103.331 28.2887 102.62 30.1293 101.5 31.7187L94.5938 30.8437C95.7056 29.2567 96.4121 27.4218 96.6518 25.499C96.8915 23.5761 96.657 21.6239 95.9687 19.8125L102.875 20.6562Z" fill="#FFE500" stroke="#45413C" stroke-width="0.5" stroke-linecap="round" stroke-linejoin="round"/>
<path id="Vector_15" d="M26.9688 56.7813C27.6696 58.5939 27.9136 60.5512 27.6792 62.4804C27.4449 64.4097 26.7394 66.2516 25.625 67.8437L18.75 66.9688C19.8642 65.3825 20.5698 63.5458 20.8042 61.6215C21.0386 59.6972 20.7946 57.7449 20.0937 55.9375L26.9688 56.7813Z" fill="#FFE500" stroke="#45413C" stroke-width="0.5" stroke-linecap="round" stroke-linejoin="round"/>
<path id="Vector_16" d="M72.3125 29.8125C71.1303 28.4045 70.3102 26.7289 69.9235 24.9315C69.5368 23.1342 69.5952 21.2696 70.0937 19.5L76.5312 18.125C76.0354 19.8898 75.9784 21.749 76.3651 23.5409C76.7518 25.3328 77.5705 27.003 78.75 28.4062L72.3125 29.8125Z" fill="#00B8F0" stroke="#45413C" stroke-width="0.5" stroke-linecap="round" stroke-linejoin="round"/>
<path id="Vector_17" d="M46.3749 111.063C44.6015 108.969 43.3715 106.471 42.7937 103.79C42.216 101.108 42.3082 98.3251 43.0624 95.6875L52.6874 93.75C51.9291 96.3851 51.8317 99.1665 52.404 101.848C52.9763 104.53 54.2006 107.029 55.9687 109.125L46.3749 111.063Z" fill="#6DD627" stroke="#45413C" stroke-width="0.5" stroke-linecap="round" stroke-linejoin="round"/>
<path id="Vector_18" d="M41.1563 121.281C43.0552 122.126 44.7193 123.422 46.0045 125.056C47.2896 126.689 48.1569 128.612 48.5312 130.656L42.6562 135.281C42.3055 133.228 41.4471 131.295 40.1591 129.657C38.8711 128.02 37.1944 126.731 35.2812 125.906L41.1563 121.281Z" fill="#00B8F0" stroke="#45413C" stroke-width="0.5" stroke-linecap="round" stroke-linejoin="round"/>
<path id="Vector_19" d="M135.406 58.7188C133.078 59.1074 130.69 58.9142 128.454 58.1563C126.219 57.3984 124.206 56.0994 122.594 54.375L125.312 46.3438C126.923 48.0715 128.935 49.3748 131.17 50.138C133.405 50.9013 135.794 51.1007 138.125 50.7187L135.406 58.7188Z" fill="#FF6242" stroke="#45413C" stroke-width="0.5" stroke-linecap="round" stroke-linejoin="round"/>
<path id="Vector_20" d="M27.1562 114.562C25.1803 114.88 23.1566 114.711 21.2612 114.068C19.3659 113.425 17.6563 112.329 16.2812 110.875L18.75 104.094C20.1202 105.545 21.8245 106.64 23.7144 107.283C25.6043 107.926 27.6226 108.097 29.5938 107.781L27.1562 114.562Z" fill="#FFE500" stroke="#45413C" stroke-width="0.5" stroke-linecap="round" stroke-linejoin="round"/>
<path id="Vector_21" d="M6.9375 86.6562C7.38066 84.7465 8.28031 82.9726 9.55935 81.4868C10.8384 80.0009 12.4586 78.8474 14.2813 78.125L19.6875 82.625C17.88 83.3722 16.2813 84.5478 15.0291 86.0503C13.777 87.5529 12.909 89.3374 12.5 91.25L6.9375 86.6562Z" fill="#FF6242" stroke="#45413C" stroke-width="0.5" stroke-linecap="round" stroke-linejoin="round"/>
<path id="Vector_22" d="M43.125 56.5938C43.125 57.4971 43.4839 58.3635 44.1227 59.0023C44.7615 59.6411 45.6279 60 46.5313 60C47.4346 60 48.301 59.6411 48.9398 59.0023C49.5786 58.3635 49.9375 57.4971 49.9375 56.5938C49.9375 55.6904 49.5786 54.824 48.9398 54.1852C48.301 53.5464 47.4346 53.1875 46.5313 53.1875C45.6279 53.1875 44.7615 53.5464 44.1227 54.1852C43.4839 54.824 43.125 55.6904 43.125 56.5938Z" fill="white" stroke="#45413C" stroke-width="0.5" stroke-linecap="round" stroke-linejoin="round"/>
<path id="Vector_23" d="M66 42.4375C66 43.3575 66.3655 44.2398 67.016 44.8903C67.6665 45.5408 68.5488 45.9062 69.4687 45.9062C70.3887 45.9062 71.271 45.5408 71.9215 44.8903C72.572 44.2398 72.9375 43.3575 72.9375 42.4375C72.9375 41.5175 72.572 40.6352 71.9215 39.9847C71.271 39.3342 70.3887 38.9688 69.4687 38.9688C68.5488 38.9688 67.6665 39.3342 67.016 39.9847C66.3655 40.6352 66 41.5175 66 42.4375Z" fill="white" stroke="#45413C" stroke-width="0.5" stroke-linecap="round" stroke-linejoin="round"/>
<path id="Vector_24" d="M27.2187 11.7817L19.2499 19.7504C-2.65634 15.1879 22.6562 -10.0308 27.2187 11.7817Z" fill="#DEBB7E" stroke="#45413C" stroke-width="0.5" stroke-linecap="round" stroke-linejoin="round"/>
<path id="Vector_25" d="M26.6562 12.5L32.375 17.2188C32.5769 17.396 32.7416 17.6116 32.8596 17.853C32.9777 18.0944 33.0466 18.3568 33.0625 18.625C33.0735 18.8999 33.0294 19.1742 32.9328 19.4318C32.8362 19.6895 32.6891 19.9251 32.5 20.125L27.4063 25C27.2144 25.1912 26.9845 25.3401 26.7315 25.437C26.4785 25.5339 26.208 25.5766 25.9375 25.5625C25.4138 25.5633 24.91 25.3618 24.5312 25L19.8125 19.1875L26.6562 12.5Z" fill="#DEBB7E" stroke="#45413C" stroke-width="0.5" stroke-linecap="round" stroke-linejoin="round"/>
<path id="Vector_26" d="M54.8437 46.3125L45.8125 37.2812" stroke="#45413C" stroke-width="0.5" stroke-linecap="round" stroke-linejoin="round"/>
<path id="Vector_27" d="M51.3125 36.2812L46.8125 31.7812" stroke="#45413C" stroke-width="0.5" stroke-linecap="round" stroke-linejoin="round"/>
<path id="Vector_28" d="M43.8125 28.75L43.0312 28" stroke="#45413C" stroke-width="0.5" stroke-linecap="round" stroke-linejoin="round"/>
<path id="Vector_29" d="M42.7812 34.2813L42.0312 33.5312" stroke="#45413C" stroke-width="0.5" stroke-linecap="round" stroke-linejoin="round"/>
<path id="Vector_30" d="M40.0313 25L39.2812 24.25" stroke="#45413C" stroke-width="0.5" stroke-linecap="round" stroke-linejoin="round"/>
<path id="Vector_31" d="M44.4375 43.1875L39.9062 38.6562" stroke="#45413C" stroke-width="0.5" stroke-linecap="round" stroke-linejoin="round"/>
<path id="Vector_32" d="M36.9063 35.6562L36.1562 34.9062" stroke="#45413C" stroke-width="0.5" stroke-linecap="round" stroke-linejoin="round"/>
<path id="Vector_33" d="M33.125 31.9062L32.375 31.1562" stroke="#45413C" stroke-width="0.5" stroke-linecap="round" stroke-linejoin="round"/>
<path id="Vector_34" d="M39.0312 30.5312L38.2812 29.75" stroke="#45413C" stroke-width="0.5" stroke-linecap="round" stroke-linejoin="round"/>
<path id="Vector_35" d="M73.8751 52.1571C72.8209 51.1075 71.3939 50.5183 69.9064 50.5183C68.4188 50.5183 66.9918 51.1075 65.9376 52.1571C65.7466 51.8279 65.5157 51.5235 65.2501 51.2508C64.8781 50.7023 64.3896 50.2426 63.8193 49.9048C63.2491 49.567 62.6113 49.3593 61.9514 49.2966C61.2916 49.2338 60.6261 49.3177 60.0024 49.542C59.3787 49.7664 58.8123 50.1257 58.3437 50.5944C57.875 51.0631 57.5156 51.6295 57.2913 52.2531C57.0669 52.8768 56.9831 53.5424 57.0458 54.2022C57.1085 54.862 57.3162 55.4998 57.6541 56.0701C57.9919 56.6403 58.4515 57.1289 59.0001 57.5008C59.2778 57.7741 59.5935 58.0057 59.9376 58.1883H59.7814C58.7318 59.2425 58.1425 60.6695 58.1425 62.1571C58.1425 63.6447 58.7318 65.0717 59.7814 66.1258C60.7981 67.1155 62.1449 67.6943 63.5626 67.7508V75.9383C63.5626 76.5848 63.8194 77.2048 64.2765 77.6619C64.7337 78.119 65.3537 78.3758 66.0001 78.3758C66.6466 78.3758 67.2666 78.119 67.7237 77.6619C68.1808 77.2048 68.4376 76.5848 68.4376 75.9383V65.6258C69.6194 65.452 70.7145 64.9045 71.5626 64.0633C72.4552 63.1635 73.0075 61.9816 73.1251 60.7196C73.4162 60.5389 73.6883 60.3296 73.9376 60.0946C74.9789 59.0322 75.557 57.6005 75.5453 56.1129C75.5335 54.6254 74.933 53.203 73.8751 52.1571Z" fill="white" stroke="#45413C" stroke-width="0.5" stroke-linecap="round" stroke-linejoin="round"/>
</g>
</g>
</svg>
