<svg width="32" height="32" viewBox="0 0 32 32" fill="none" xmlns="http://www.w3.org/2000/svg">
<path d="M20.6667 18.3333C20.6667 18.0681 20.772 17.8138 20.9596 17.6262C21.1471 17.4387 21.4014 17.3333 21.6667 17.3333H24.3333C24.5985 17.3333 24.8529 17.4387 25.0404 17.6262C25.228 17.8138 25.3333 18.0681 25.3333 18.3333C25.3333 18.5985 25.228 18.8529 25.0404 19.0404C24.8529 19.228 24.5985 19.3333 24.3333 19.3333H21.6667C21.4014 19.3333 21.1471 19.228 20.9596 19.0404C20.772 18.8529 20.6667 18.5985 20.6667 18.3333ZM4 6.66667H4.01867C4.10066 5.93332 4.45005 5.25591 5.00006 4.76396C5.55006 4.27201 6.26208 4.00002 7 4H22.3333C22.7273 4 23.1174 4.0776 23.4814 4.22836C23.8454 4.37913 24.1761 4.6001 24.4547 4.87868C24.7332 5.15726 24.9542 5.48797 25.105 5.85195C25.2557 6.21593 25.3333 6.60603 25.3333 7V8.116C26.2824 8.34135 27.1278 8.88025 27.7327 9.64556C28.3376 10.4109 28.6666 11.3578 28.6667 12.3333V23.6667C28.6667 24.8159 28.2101 25.9181 27.3975 26.7308C26.5848 27.5435 25.4826 28 24.3333 28H8.33333C7.18406 28 6.08186 27.5435 5.2692 26.7308C4.45655 25.9181 4 24.8159 4 23.6667V6.66667ZM24.3333 10H6V23.6667C6 24.9547 7.04533 26 8.33333 26H24.3333C24.9522 26 25.5457 25.7542 25.9832 25.3166C26.4208 24.879 26.6667 24.2855 26.6667 23.6667V12.3333C26.6667 11.7145 26.4208 11.121 25.9832 10.6834C25.5457 10.2458 24.9522 10 24.3333 10ZM23.3333 8V7C23.3333 6.73478 23.228 6.48043 23.0404 6.29289C22.8529 6.10536 22.5985 6 22.3333 6H7C6.73478 6 6.48043 6.10536 6.29289 6.29289C6.10536 6.48043 6 6.73478 6 7C6 7.26522 6.10536 7.51957 6.29289 7.70711C6.48043 7.89464 6.73478 8 7 8H23.3333Z" fill="#AE6D56"/>
</svg>
