<svg width="150" height="150" viewBox="0 0 150 150" fill="none" xmlns="http://www.w3.org/2000/svg">
<g id="worried-face">
<g id="Group">
<path id="Vector" d="M12.5 67.1875C12.5 83.7635 19.0848 99.6607 30.8058 111.382C42.5268 123.103 58.424 129.688 75 129.688C91.576 129.688 107.473 123.103 119.194 111.382C130.915 99.6607 137.5 83.7635 137.5 67.1875C137.5 50.6115 130.915 34.7143 119.194 22.9933C107.473 11.2723 91.576 4.6875 75 4.6875C58.424 4.6875 42.5268 11.2723 30.8058 22.9933C19.0848 34.7143 12.5 50.6115 12.5 67.1875Z" fill="#FFE500"/>
<path id="Vector_2" d="M75 4.6875C62.6387 4.6875 50.555 8.35306 40.2769 15.2206C29.9988 22.0882 21.988 31.8494 17.2576 43.2698C12.5271 54.6902 11.2894 67.2568 13.7009 79.3806C16.1125 91.5045 22.0651 102.641 30.8059 111.382C39.5466 120.122 50.6831 126.075 62.8069 128.487C74.9307 130.898 87.4974 129.66 98.9177 124.93C110.338 120.2 120.099 112.189 126.967 101.911C133.834 91.6326 137.5 79.5488 137.5 67.1875C137.5 50.6115 130.915 34.7143 119.194 22.9933C107.473 11.2723 91.5761 4.6875 75 4.6875ZM75 120.312C63.7203 120.312 52.6939 116.968 43.3152 110.701C33.9364 104.434 26.6266 95.5273 22.31 85.1062C17.9935 74.6851 16.8641 63.218 19.0646 52.155C21.2652 41.092 26.6969 30.93 34.6728 22.9541C42.6488 14.9781 52.8108 9.5464 63.8738 7.34584C74.9368 5.14528 86.4038 6.27469 96.8249 10.5912C107.246 14.9078 116.153 22.2176 122.42 31.5964C128.686 40.9751 132.031 52.0015 132.031 63.2812C132.031 78.4069 126.023 92.913 115.327 103.608C104.632 114.304 90.1257 120.312 75 120.312Z" fill="#EBCB00"/>
<path id="Vector_3" d="M56.25 17.1875C56.25 18.4307 58.2254 19.623 61.7417 20.5021C65.2581 21.3811 70.0272 21.875 75 21.875C79.9728 21.875 84.7419 21.3811 88.2583 20.5021C91.7746 19.623 93.75 18.4307 93.75 17.1875C93.75 15.9443 91.7746 14.752 88.2583 13.8729C84.7419 12.9939 79.9728 12.5 75 12.5C70.0272 12.5 65.2581 12.9939 61.7417 13.8729C58.2254 14.752 56.25 15.9443 56.25 17.1875Z" fill="#FFF48C"/>
<path id="Vector_4" d="M12.5 67.1875C12.5 83.7635 19.0848 99.6606 30.8058 111.382C42.5269 123.103 58.424 129.687 75 129.688C91.576 129.687 107.473 123.103 119.194 111.382C130.915 99.6606 137.5 83.7635 137.5 67.1875C137.5 50.6115 130.915 34.7144 119.194 22.9933C107.473 11.2723 91.576 4.6875 75 4.6875C58.424 4.6875 42.5269 11.2723 30.8058 22.9933C19.0848 34.7144 12.5 50.6115 12.5 67.1875V67.1875Z" stroke="#45413C" stroke-width="0.5" stroke-linecap="round" stroke-linejoin="round"/>
<path id="Vector_5" d="M59.375 98.4379C64 95.3476 69.4376 93.6982 75 93.6982C80.5624 93.6982 86 95.3476 90.625 98.4379" stroke="#45413C" stroke-width="0.5" stroke-linecap="round"/>
<path id="Vector_6" opacity="0.15" d="M25 142.188C25 143.431 30.2678 144.623 39.6447 145.502C49.0215 146.381 61.7392 146.875 75 146.875C88.2608 146.875 100.979 146.381 110.355 145.502C119.732 144.623 125 143.431 125 142.188C125 140.944 119.732 139.752 110.355 138.873C100.979 137.994 88.2608 137.5 75 137.5C61.7392 137.5 49.0215 137.994 39.6447 138.873C30.2678 139.752 25 140.944 25 142.188Z" fill="#45413C"/>
<path id="Vector_7" d="M46.875 67.1875C46.875 67.8056 46.6917 68.4098 46.3483 68.9237C46.005 69.4376 45.5169 69.8381 44.9459 70.0746C44.3749 70.3111 43.7465 70.373 43.1403 70.2525C42.5342 70.1319 41.9773 69.8342 41.5403 69.3972C41.1033 68.9602 40.8056 68.4034 40.685 67.7972C40.5645 67.191 40.6264 66.5626 40.8629 65.9916C41.0994 65.4206 41.4999 64.9325 42.0138 64.5892C42.5277 64.2458 43.1319 64.0625 43.75 64.0625C44.5788 64.0625 45.3737 64.3917 45.9597 64.9778C46.5458 65.5638 46.875 66.3587 46.875 67.1875Z" fill="#45413C" stroke="#45413C" stroke-width="0.5" stroke-linecap="round" stroke-linejoin="round"/>
<path id="Vector_8" d="M107.812 67.1875C107.812 67.8056 107.629 68.4098 107.286 68.9237C106.942 69.4376 106.454 69.8381 105.883 70.0746C105.312 70.3111 104.684 70.373 104.078 70.2525C103.472 70.1319 102.915 69.8342 102.478 69.3972C102.041 68.9602 101.743 68.4034 101.623 67.7972C101.502 67.191 101.564 66.5626 101.8 65.9916C102.037 65.4206 102.437 64.9325 102.951 64.5892C103.465 64.2458 104.069 64.0625 104.688 64.0625C105.516 64.0625 106.311 64.3917 106.897 64.9778C107.483 65.5638 107.812 66.3587 107.812 67.1875Z" fill="#45413C" stroke="#45413C" stroke-width="0.5" stroke-linecap="round" stroke-linejoin="round"/>
<path id="Vector_9" d="M40.625 53.625C44.2928 53.0338 47.846 51.874 51.1563 50.1875C54.4792 48.5334 57.5173 46.3603 60.1562 43.75" stroke="#45413C" stroke-width="0.5" stroke-linecap="round" stroke-linejoin="round"/>
<path id="Vector_10" d="M108.594 53.625C101.225 52.4144 94.406 48.967 89.0625 43.75" stroke="#45413C" stroke-width="0.5" stroke-linecap="round" stroke-linejoin="round"/>
<path id="Vector_11" d="M120.312 82.8125C120.312 85.4062 116.812 87.5 112.5 87.5C108.188 87.5 104.688 85.4062 104.688 82.8125C104.688 80.2188 108.188 78.125 112.5 78.125C116.812 78.125 120.312 80.2188 120.312 82.8125Z" fill="#FFAA54"/>
<path id="Vector_12" d="M29.6875 82.8125C29.6875 85.4062 33.1875 87.5 37.5 87.5C41.8125 87.5 45.3125 85.4062 45.3125 82.8125C45.3125 80.2188 41.8125 78.125 37.5 78.125C33.1875 78.125 29.6875 80.2188 29.6875 82.8125Z" fill="#FFAA54"/>
</g>
</g>
</svg>
