<svg width="420" height="374" viewBox="0 0 420 374" fill="none" xmlns="http://www.w3.org/2000/svg">
<path opacity="0.7" d="M383.283 72.3716C383.283 72.3716 349.263 25.9444 287.936 25.0158C226.61 24.0873 189.437 64.2639 147.604 87.2963C125.696 99.3334 98.6158 98.4502 74.6318 105.72C-2.13963 128.877 -19.0702 224.925 21.0165 274.262C55.7508 316.941 109.049 335.41 185.99 332.749C262.932 330.088 317.261 330.802 379.314 278.769C441.366 226.737 424.004 133.893 383.283 72.3716Z" fill="#ED7289"/>
<g filter="url(#filter0_f_72_1857)">
<path d="M304.818 144.513L282.727 51.5455V342H304.818V144.513Z" fill="#263238" fill-opacity="0.4"/>
</g>
<path d="M135.732 38.3048L135.012 37.1672C131.894 31.7759 127.15 27.5089 121.46 24.9767C115.77 22.4446 109.424 21.7771 103.332 23.0696C98.2621 24.2268 93.5564 26.6179 89.6326 30.0305C85.7088 33.4431 82.6883 37.7717 80.8391 42.632C78.6791 48.392 78.0959 55.0016 74.0351 59.5664C68.7503 65.4992 59.7719 65.6864 51.8807 65.4416C43.9895 65.1968 35.0111 65.4416 29.7551 71.3672C26.4575 75.0968 25.4351 80.4104 25.6727 85.4072C26.3927 98.6408 35.6015 110.478 47.3303 116.367C59.0591 122.257 72.8759 122.782 85.7135 120.19C103.713 116.59 120.799 106.611 131.073 91.232C141.348 75.8528 143.961 54.9008 135.732 38.3048Z" fill="#ED7289"/>
<path d="M351.443 98.1879C354.729 86.6373 348.029 74.61 336.479 71.324C324.928 68.0381 312.901 74.738 309.615 86.2885C306.329 97.8391 313.029 109.866 324.579 113.152C336.13 116.438 348.157 109.738 351.443 98.1879Z" fill="#E53557"/>
<path d="M351.16 341.863C351.16 341.971 277.655 342.058 187 342.058C96.3449 342.058 22.8401 342 22.8401 341.863C22.8401 341.726 96.3233 341.676 187 341.676C277.677 341.676 351.16 341.762 351.16 341.863Z" fill="black"/>
<path d="M177.618 51.1128L143.93 176.22V341.863H295.346V51.8256L177.618 51.1128Z" fill="#E0E0E0"/>
<path d="M149.042 179.23L174.969 78.6096L189.311 97.3656L170.555 171L149.042 179.23Z" fill="#E0E0E0"/>
<path d="M174.969 78.6096H246.371L242.93 97.2864L189.311 97.3656L174.969 78.6096Z" fill="#E0E0E0"/>
<g opacity="0.3">
<path d="M149.042 179.23L174.969 78.6096L189.311 97.3656L170.555 171L149.042 179.23Z" fill="black"/>
</g>
<g opacity="0.3">
<path d="M174.969 78.6096H246.371L242.93 97.2864L189.311 97.3656L174.969 78.6096Z" fill="black"/>
</g>
<path d="M170.555 171H229.66L242.93 97.2864L189.311 97.3656L170.555 171Z" fill="#E0E0E0"/>
<path d="M149.042 179.23H229.696V171H170.555L149.042 179.23Z" fill="#E0E0E0"/>
<path d="M155.162 326.095H156.443H160.158L174.364 326.059L226.125 325.98L225.981 326.124C225.981 293.796 225.981 251.798 225.938 206.05L226.125 206.237H155.162L155.334 206.064C155.298 241.258 155.27 271.26 155.248 292.464C155.248 303.077 155.212 311.486 155.205 317.254C155.205 320.134 155.205 322.351 155.205 323.856C155.205 324.576 155.205 325.174 155.205 325.562C155.205 325.951 155.205 326.146 155.205 326.146C155.205 326.146 155.205 325.958 155.205 325.584C155.205 325.21 155.205 324.634 155.205 323.899C155.205 322.402 155.205 320.191 155.205 317.333C155.205 311.573 155.205 303.178 155.162 292.579C155.162 271.346 155.111 241.308 155.075 206.064V205.884H226.312V206.071C226.312 251.82 226.312 293.818 226.269 326.146V326.297H226.125L174.285 326.218L160.101 326.16H156.407L155.162 326.095Z" fill="#263238"/>
<g opacity="0.3">
<path d="M236.918 341.863V171L258.59 51.6024L295.346 51.8256V341.863H236.918Z" fill="black"/>
</g>
<path d="M180.448 72.54L183.681 60.3216H249.201L246.047 72.54H180.448Z" fill="#FF725E"/>
<path d="M149.042 179.23C149.042 179.23 149.171 179.165 149.423 179.064L150.539 178.61L154.859 176.926L170.534 170.863L170.447 170.964C173.011 160.949 176.33 148.018 179.944 133.934C183.465 120.334 186.705 107.806 189.254 97.9344V98.0568L178.85 83.9088C177.626 82.2312 176.69 80.9136 175.97 80.0064C175.66 79.5672 175.415 79.2216 175.25 78.9768C175.084 78.732 175.012 78.6168 175.012 78.6168C175.012 78.6168 175.113 78.7248 175.286 78.948C175.459 79.1712 175.732 79.524 176.056 79.956L178.936 83.808L189.491 97.92L189.535 97.9704V98.0424C187.007 107.906 183.775 120.442 180.297 134.042C176.654 148.118 173.313 161.042 170.721 171.05V171.122H170.649L154.888 177.12L150.568 178.726L149.438 179.136C149.179 179.194 149.042 179.23 149.042 179.23Z" fill="#263238"/>
<path d="M187.994 122.062C187.778 122.818 183.976 137.268 183.976 137.268H192.875L196.821 122.062H187.994Z" fill="#455A64"/>
<path d="M197.606 120.413H188.001L188.548 118.541H198.153L197.606 120.413Z" fill="#455A64"/>
<path d="M197.951 119.426C196.358 119.612 194.752 119.674 193.149 119.614C191.546 119.674 189.94 119.611 188.346 119.426C189.94 119.241 191.546 119.179 193.149 119.239C194.752 119.178 196.358 119.241 197.951 119.426Z" fill="#263238"/>
<path d="M191.075 143.453H181.47L182.01 141.581H191.615L191.075 143.453Z" fill="#455A64"/>
<path d="M191.421 142.466C189.828 142.656 188.222 142.718 186.619 142.654C185.015 142.719 183.409 142.656 181.816 142.466C183.41 142.281 185.015 142.218 186.619 142.279C188.222 142.219 189.827 142.281 191.421 142.466Z" fill="#263238"/>
<path d="M205.259 165.751H177.618L178.482 161.093H206.13L205.259 165.751Z" fill="#455A64"/>
<path d="M204.331 163.44C204.331 163.541 198.751 163.627 191.875 163.627C184.999 163.627 179.411 163.541 179.411 163.44C179.411 163.339 184.991 163.253 191.875 163.253C198.758 163.253 204.331 163.318 204.331 163.44Z" fill="#263238"/>
<path d="M188.346 127.8H193.646L191.716 124.711L188.346 127.8Z" fill="#263238"/>
<path d="M189.311 127.8L187.396 134.647H191.126L192.666 127.8H189.311Z" fill="#263238"/>
<path d="M204.575 106.632L194.229 148.975H233.627L241.439 106.819L204.575 106.632Z" fill="#263238"/>
<path d="M209.003 110.822L200.997 144.374L234.47 144.432L240.719 110.686L209.003 110.822Z" fill="#455A64"/>
<path d="M204.662 106.891C205.506 107.415 206.28 108.044 206.966 108.763C207.735 109.395 208.421 110.121 209.01 110.923C208.168 110.396 207.394 109.768 206.706 109.051C205.94 108.416 205.253 107.691 204.662 106.891Z" fill="#455A64"/>
<path d="M200.803 144.151C199.923 145.234 198.896 146.186 197.75 146.981C196.673 147.867 195.476 148.594 194.193 149.141C194.135 149.047 195.705 148.054 197.519 146.671C199.334 145.289 200.723 144.072 200.803 144.151Z" fill="#455A64"/>
<g opacity="0.1">
<path d="M149.042 179.23H229.696V171H170.555L149.042 179.23Z" fill="black"/>
</g>
<path d="M215.973 125.215C216.262 125.337 216.561 125.435 216.866 125.51C217.243 125.597 217.613 125.71 217.974 125.849C218.267 125.968 218.526 126.156 218.73 126.396C218.946 126.665 219.059 127.002 219.047 127.346C219.056 127.656 218.995 127.964 218.871 128.248C218.746 128.532 218.561 128.784 218.327 128.988C217.764 129.452 217.068 129.727 216.34 129.773L216.124 130.846H214.943L215.159 129.773C214.716 129.74 214.279 129.656 213.856 129.521C213.5 129.419 213.162 129.261 212.855 129.053L213.633 127.613C213.974 127.837 214.348 128.007 214.742 128.117C215.125 128.231 215.523 128.289 215.922 128.29C216.224 128.306 216.524 128.252 216.801 128.131C216.89 128.094 216.966 128.032 217.021 127.953C217.076 127.874 217.107 127.781 217.11 127.685C217.107 127.6 217.079 127.517 217.029 127.448C216.979 127.379 216.91 127.326 216.83 127.296C216.544 127.171 216.248 127.072 215.944 127.001C215.567 126.907 215.196 126.786 214.835 126.641C214.541 126.514 214.28 126.322 214.072 126.079C213.847 125.804 213.731 125.455 213.748 125.1C213.739 124.781 213.804 124.464 213.936 124.173C214.068 123.882 214.265 123.626 214.511 123.422C215.102 122.951 215.829 122.683 216.585 122.659L216.794 121.594H217.96L217.744 122.681C218.378 122.723 218.992 122.915 219.537 123.242L218.817 124.682C218.544 124.511 218.248 124.38 217.938 124.294C217.612 124.207 217.275 124.164 216.938 124.164C216.622 124.146 216.307 124.21 216.023 124.351C215.929 124.394 215.847 124.461 215.788 124.546C215.728 124.631 215.693 124.73 215.685 124.834C215.69 124.918 215.72 125 215.771 125.068C215.822 125.136 215.893 125.187 215.973 125.215Z" fill="#ED7289"/>
<path d="M222.352 125.215C222.644 125.336 222.945 125.435 223.252 125.51C223.629 125.598 223.999 125.712 224.361 125.849C224.64 125.974 224.886 126.161 225.081 126.396C225.303 126.661 225.416 127.001 225.398 127.346C225.402 127.656 225.34 127.962 225.216 128.245C225.092 128.529 224.908 128.782 224.678 128.988C224.113 129.45 223.418 129.724 222.69 129.773L222.467 130.846H221.286L221.502 129.773C221.06 129.739 220.623 129.655 220.199 129.521C219.844 129.416 219.507 129.258 219.198 129.053L219.976 127.613C220.663 128.05 221.459 128.285 222.273 128.29C222.572 128.305 222.87 128.251 223.144 128.131C223.234 128.096 223.311 128.034 223.366 127.955C223.422 127.875 223.452 127.781 223.454 127.685C223.451 127.6 223.422 127.517 223.372 127.448C223.322 127.379 223.253 127.326 223.173 127.296C222.89 127.171 222.596 127.072 222.294 127.001C221.915 126.906 221.542 126.786 221.178 126.641C220.886 126.512 220.625 126.321 220.415 126.079C220.193 125.803 220.08 125.454 220.098 125.1C220.09 124.782 220.154 124.465 220.285 124.175C220.416 123.884 220.61 123.627 220.854 123.422C221.448 122.951 222.178 122.683 222.935 122.659L223.144 121.594H224.325L224.109 122.681C224.743 122.723 225.357 122.915 225.902 123.242L225.182 124.682C224.906 124.513 224.608 124.382 224.296 124.294C223.97 124.207 223.633 124.163 223.295 124.164C222.982 124.146 222.669 124.21 222.388 124.351C222.293 124.392 222.21 124.459 222.151 124.544C222.091 124.63 222.056 124.73 222.05 124.834C222.056 124.92 222.088 125.003 222.142 125.071C222.196 125.139 222.269 125.189 222.352 125.215Z" fill="#ED7289"/>
<path d="M228.76 125.215C229.05 125.337 229.348 125.435 229.653 125.51C230.03 125.597 230.4 125.71 230.762 125.849C231.054 125.968 231.313 126.156 231.518 126.396C231.734 126.665 231.846 127.002 231.834 127.346C231.839 127.656 231.777 127.962 231.653 128.245C231.529 128.529 231.345 128.782 231.114 128.988C230.548 129.451 229.85 129.725 229.12 129.773L228.904 130.846H227.723L227.939 129.773C227.496 129.74 227.059 129.656 226.636 129.521C226.28 129.417 225.943 129.259 225.635 129.053L226.413 127.613C226.755 127.836 227.129 128.006 227.522 128.117C227.907 128.232 228.307 128.29 228.71 128.29C229.008 128.305 229.307 128.251 229.581 128.131C229.671 128.096 229.748 128.034 229.803 127.955C229.858 127.875 229.889 127.781 229.89 127.685C229.887 127.6 229.859 127.517 229.809 127.448C229.759 127.379 229.69 127.326 229.61 127.296C229.324 127.171 229.028 127.072 228.724 127.001C228.347 126.907 227.976 126.786 227.615 126.641C227.322 126.512 227.062 126.321 226.852 126.079C226.627 125.804 226.511 125.455 226.528 125.1C226.519 124.781 226.584 124.464 226.716 124.173C226.848 123.882 227.045 123.626 227.291 123.422C227.882 122.951 228.609 122.683 229.365 122.659L229.574 121.594H230.754L230.538 122.681C231.172 122.721 231.787 122.914 232.331 123.242L231.611 124.682C231.339 124.511 231.043 124.38 230.733 124.294C230.406 124.207 230.07 124.164 229.732 124.164C229.416 124.146 229.101 124.21 228.818 124.351C228.723 124.394 228.642 124.461 228.582 124.546C228.523 124.631 228.487 124.73 228.479 124.834C228.484 124.918 228.513 124.999 228.563 125.066C228.613 125.134 228.681 125.186 228.76 125.215Z" fill="#ED7289"/>
<path d="M207.11 68.9832H204.172L203.38 70.3224H201.321L205.72 63.432H207.642L209.32 70.3224H207.383L207.11 68.9832ZM206.814 67.5432L206.354 65.304L205 67.5504L206.814 67.5432Z" fill="#9D0824"/>
<path d="M212.078 64.9728H209.961L210.271 63.432H216.448L216.131 64.9728H214.029L212.956 70.3224H211.005L212.078 64.9728Z" fill="#9D0824"/>
<path d="M225.16 63.432L223.799 70.3224H221.992L222.712 66.7224L220.415 69.6744H219.558L218.306 66.7224L217.586 70.3224H215.8L217.182 63.432H218.766L220.379 67.4208L223.511 63.432H225.16Z" fill="#9D0824"/>
<g opacity="0.3">
<path d="M218.817 258.869C218.817 259.525 218.622 260.167 218.257 260.713C217.893 261.259 217.374 261.684 216.768 261.935C216.161 262.187 215.494 262.252 214.85 262.124C214.206 261.996 213.615 261.68 213.151 261.216C212.686 260.752 212.37 260.16 212.242 259.516C212.114 258.872 212.18 258.205 212.431 257.599C212.682 256.992 213.108 256.474 213.654 256.109C214.199 255.744 214.841 255.55 215.498 255.55C215.934 255.549 216.366 255.634 216.769 255.8C217.172 255.967 217.538 256.211 217.847 256.52C218.155 256.828 218.4 257.194 218.566 257.597C218.733 258.001 218.818 258.433 218.817 258.869Z" fill="black"/>
</g>
<path d="M229.66 171C229.66 171.101 216.455 171.187 200.14 171.187C183.825 171.187 170.62 171.101 170.62 171C170.62 170.899 183.825 170.813 200.14 170.813C216.455 170.813 229.66 170.899 229.66 171Z" fill="#263238"/>
<path d="M243.606 97.3008C243.606 97.4016 231.453 97.488 216.455 97.488C201.458 97.488 189.297 97.4016 189.297 97.3008C189.297 97.2 201.45 97.1136 216.455 97.1136C231.46 97.1136 243.606 97.2 243.606 97.3008Z" fill="#263238"/>
<path d="M174.631 191.938C174.622 191.782 174.622 191.625 174.631 191.47C174.631 191.138 174.631 190.699 174.631 190.145C174.631 188.978 174.595 187.322 174.573 185.249L174.681 185.364C169.036 185.407 160.058 185.436 149.963 185.436C150.043 185.357 149.769 185.623 150.143 185.249V191.923L149.956 191.743L167.56 191.822L172.766 191.88H174.206H174.71C174.559 191.889 174.407 191.889 174.256 191.88H172.881L167.719 191.93L149.985 192.017H149.805V188.64C149.805 188.078 149.805 187.517 149.805 186.948V185.249C150.179 184.874 149.913 185.148 149.999 185.062C160.079 185.062 169.072 185.062 174.717 185.134H174.76V185.242C174.76 187.344 174.717 189.022 174.703 190.21C174.703 190.75 174.703 191.182 174.703 191.506C174.698 191.652 174.674 191.797 174.631 191.938Z" fill="#263238"/>
<path d="M172.874 188.395C172.874 188.496 168.244 188.582 162.527 188.582C156.81 188.582 152.188 188.496 152.188 188.395C152.188 188.294 156.818 188.208 162.527 188.208C168.237 188.208 172.874 188.287 172.874 188.395Z" fill="#263238"/>
<path d="M145.632 69.2636C140.594 69.5546 137.194 68.6235 132.521 66.2208L124.623 68.8978L126.901 60.9166C124.058 57.508 123.31 53.8998 123.035 49.1278C122.792 44.9025 123.808 40.7001 125.953 37.0519C128.099 33.4037 131.278 30.4736 135.088 28.632C138.899 26.7905 143.17 26.1202 147.361 26.706C151.553 27.2917 155.477 29.1072 158.636 31.9229C161.796 34.7385 164.05 38.4279 165.113 42.5245C166.176 46.621 166.001 50.9408 164.609 54.9376C163.217 58.9344 160.671 62.4288 157.293 64.9788C153.915 67.5288 149.857 69.0199 145.632 69.2636Z" fill="white"/>
<path d="M145.963 69.6733C146.085 69.6387 146.21 69.6165 146.337 69.6068L147.409 69.4654C147.65 69.4654 147.916 69.4155 148.241 69.3657L149.18 69.1578L150.286 68.9084L151.5 68.5093C152.454 68.1899 153.385 67.8037 154.285 67.3537L155.781 66.5224C156.297 66.2148 156.787 65.8323 157.319 65.4748C159.919 63.5577 162.046 61.0721 163.538 58.2078C165.031 55.3434 165.85 52.176 165.932 48.9471C165.957 47.9838 165.915 47.0199 165.807 46.0622C165.733 45.5717 165.724 45.0812 165.608 44.5907C165.492 44.1002 165.4 43.618 165.3 43.1192C164.777 41.1192 163.971 39.2043 162.906 37.4326C161.767 35.5789 160.367 33.8989 158.749 32.4443C157.031 30.9499 155.09 29.7325 152.996 28.8362C148.554 26.9577 143.605 26.647 138.962 27.9549C137.128 28.4803 135.37 29.2433 133.733 30.2246C132.14 31.1972 130.681 32.3738 129.393 33.7247L128.911 34.2235L128.479 34.7556L127.647 35.8197L126.891 36.9504L126.525 37.5074L126.209 38.106C125.993 38.4967 125.785 38.8958 125.577 39.2865C125.369 39.6773 125.236 40.1179 125.07 40.5087C124.737 41.3203 124.459 42.1535 124.239 43.0028C123.457 46.2718 123.342 49.6646 123.898 52.9793C124.102 54.5282 124.501 56.0451 125.087 57.4936C125.658 58.8596 126.432 60.132 127.381 61.2681L127.448 61.3429V61.426C126.617 64.286 125.86 66.938 125.145 69.4072L124.945 69.216L132.852 66.5722H132.902H132.952C134.645 67.4807 136.417 68.2321 138.247 68.817C139.6 69.239 140.993 69.5177 142.404 69.6483C143.568 69.7481 144.458 69.7398 145.065 69.7398H145.746C145.824 69.7304 145.902 69.7304 145.979 69.7398C144.787 69.8503 143.588 69.8503 142.396 69.7398C140.962 69.6434 139.543 69.3896 138.164 68.9832C136.316 68.4106 134.524 67.6704 132.81 66.7718H132.91L125.02 69.4654L124.746 69.5652L124.821 69.2742C125.519 66.8133 126.273 64.1529 127.082 61.293V61.451C126.105 60.2887 125.303 58.9889 124.704 57.5934C124.106 56.1181 123.695 54.5735 123.482 52.9959C122.922 49.6283 123.04 46.1825 123.831 42.8615C124.057 42.0138 124.335 41.1809 124.663 40.3673C124.837 39.9516 125.012 39.536 125.178 39.112C125.344 38.688 125.611 38.2806 125.818 37.9065L126.143 37.2996L126.525 36.7259C126.774 36.3435 127.032 35.961 127.282 35.5703L128.163 34.4895L128.603 33.9408L129.094 33.442C130.405 32.05 131.892 30.8344 133.517 29.8255C135.187 28.8277 136.978 28.0482 138.846 27.506C143.587 26.1729 148.64 26.4985 153.171 28.4288C155.305 29.3422 157.283 30.5849 159.032 32.1118C160.682 33.6027 162.107 35.325 163.263 37.2247C164.34 39.0389 165.149 40.999 165.666 43.0444C165.774 43.5515 165.874 44.0503 165.982 44.5408C166.09 45.0313 166.107 45.5468 166.173 46.0373C166.576 49.7874 165.979 53.5773 164.443 57.0219C162.907 60.4666 160.486 63.4432 157.427 65.6494C156.887 66.0069 156.388 66.3893 155.864 66.6886L154.343 67.52C153.427 67.9572 152.483 68.3322 151.516 68.6424L150.286 69.0248L149.18 69.2576L148.224 69.4488C147.933 69.4488 147.659 69.507 147.393 69.5319L146.303 69.6234C146.191 69.6495 146.077 69.6661 145.963 69.6733Z" fill="#263238"/>
<path d="M148.738 52.0716C147.975 52.7776 147.003 53.2154 145.969 53.3186V55.0978H144.065V53.3768C143.293 53.3298 142.528 53.1931 141.787 52.9694C141.152 52.7865 140.549 52.5061 140 52.1381L141.023 49.8185C141.56 50.1811 142.148 50.4614 142.768 50.6499C143.404 50.8474 144.065 50.9511 144.731 50.9575C145.953 50.9575 146.56 50.6499 146.56 50.043C146.56 49.8836 146.509 49.7282 146.415 49.5996C146.321 49.471 146.188 49.3758 146.036 49.328C145.499 49.1103 144.942 48.946 144.373 48.8375C143.654 48.6895 142.945 48.4923 142.253 48.2472C141.687 48.0439 141.182 47.6974 140.79 47.2413C140.359 46.7195 140.139 46.0549 140.175 45.379C140.17 44.9368 140.256 44.4984 140.428 44.0909C140.599 43.6833 140.853 43.3153 141.172 43.0096C141.968 42.2802 142.988 41.8434 144.065 41.7708V40H145.994V41.7376C146.588 41.7859 147.175 41.8917 147.748 42.0535C148.274 42.2021 148.779 42.4143 149.253 42.6853L148.222 45.0464C147.273 44.4982 146.201 44.198 145.105 44.1735C144.628 44.1416 144.151 44.2393 143.725 44.4562C143.593 44.528 143.484 44.6338 143.408 44.7626C143.332 44.8913 143.292 45.0382 143.292 45.1878C143.296 45.34 143.348 45.487 143.441 45.6079C143.533 45.7289 143.662 45.8175 143.808 45.8612C144.346 46.0697 144.902 46.2256 145.47 46.3268C146.193 46.4738 146.904 46.671 147.599 46.917C148.155 47.1279 148.653 47.4668 149.054 47.9064C149.485 48.4282 149.704 49.0927 149.669 49.7686C149.676 50.1954 149.598 50.6192 149.438 51.0149C149.278 51.4106 149.04 51.77 148.738 52.0716Z" fill="#263238"/>
<path d="M319.696 299.081C320.677 299.548 321.554 300.21 322.273 301.025C322.992 301.841 323.538 302.793 323.879 303.826C324.555 305.895 324.747 308.092 324.441 310.248C323.966 314.417 321.597 318.622 319.048 321.955C315.534 318.895 314.728 313.546 314.49 310.81C314.109 306.49 316.053 298.433 319.696 299.081Z" fill="#FF725E"/>
<path d="M323.13 328.838C322.891 327.647 322.971 326.414 323.362 325.263C323.752 324.113 324.44 323.086 325.355 322.286C326.284 321.503 327.36 320.914 328.519 320.551C329.679 320.189 330.899 320.062 332.109 320.177C332.669 320.17 333.225 320.285 333.736 320.515C334.247 320.745 334.702 321.084 335.068 321.509C335.342 321.957 335.49 322.471 335.498 322.997C335.505 323.522 335.372 324.04 335.111 324.497C334.578 325.399 333.815 326.145 332.901 326.657C329.862 328.565 326.565 329.854 323.13 328.817" fill="#FF725E"/>
<path d="M318.623 341.618C318.641 341.33 318.684 341.043 318.753 340.762C318.861 340.164 319.005 339.386 319.178 338.45C319.569 335.873 320.377 333.375 321.568 331.056C322.804 328.736 324.635 326.788 326.874 325.411C327.554 325.008 328.279 324.687 329.034 324.454C329.301 324.367 329.517 324.331 329.661 324.295C329.735 324.284 329.81 324.284 329.884 324.295C328.88 324.637 327.915 325.083 327.004 325.627C324.842 327.031 323.069 328.958 321.849 331.229C320.681 333.527 319.858 335.984 319.408 338.522C319.192 339.494 319.019 340.279 318.89 340.819C318.827 341.094 318.738 341.361 318.623 341.618Z" fill="#263238"/>
<path d="M318.76 305.338C318.783 305.461 318.798 305.586 318.803 305.712C318.803 305.993 318.839 306.346 318.861 306.792C318.911 307.721 318.969 309.074 319.019 310.745C319.134 314.086 319.214 318.701 319.192 323.798C319.17 328.896 319.048 333.518 318.911 336.859C318.839 338.53 318.774 339.883 318.717 340.812C318.717 341.251 318.659 341.611 318.645 341.885C318.644 342.011 318.627 342.137 318.594 342.259C318.583 342.135 318.583 342.009 318.594 341.885C318.594 341.604 318.594 341.251 318.594 340.805C318.594 339.833 318.645 338.494 318.688 336.852C318.767 333.511 318.861 328.896 318.882 323.798C318.904 318.701 318.882 314.093 318.803 310.752C318.803 309.11 318.753 307.764 318.738 306.792C318.738 306.353 318.738 305.993 318.738 305.719C318.727 305.592 318.734 305.463 318.76 305.338Z" fill="#263238"/>
<path d="M317.054 331.373C316.63 328.847 315.61 326.458 314.078 324.404C312.547 322.351 310.548 320.692 308.248 319.565C307.074 319.003 305.541 318.636 304.583 319.507C303.626 320.378 303.827 321.948 304.302 323.165C305.333 325.682 307.086 327.837 309.34 329.359C311.593 330.881 314.247 331.702 316.967 331.718" fill="#FF725E"/>
<path d="M308.817 323.518C309.064 323.608 309.305 323.716 309.537 323.842C309.826 323.976 310.108 324.127 310.379 324.295C310.689 324.49 311.099 324.684 311.445 324.965C311.874 325.246 312.285 325.554 312.676 325.886C313.132 326.258 313.567 326.655 313.979 327.074C314.922 328.038 315.753 329.106 316.456 330.257C317.143 331.42 317.692 332.66 318.09 333.95C318.262 334.513 318.399 335.085 318.501 335.664C318.603 336.166 318.675 336.673 318.717 337.183C318.759 337.604 318.778 338.027 318.774 338.45C318.794 338.767 318.794 339.084 318.774 339.401C318.773 339.675 318.741 339.947 318.681 340.214C318.616 340.214 318.731 339.055 318.53 337.212C318.477 336.708 318.396 336.208 318.285 335.714C318.173 335.147 318.029 334.587 317.853 334.037C317.051 331.496 315.665 329.178 313.806 327.269C313.404 326.852 312.981 326.455 312.539 326.081C312.136 325.714 311.726 325.418 311.351 325.138C309.846 324.058 308.788 323.575 308.817 323.518Z" fill="#263238"/>
<path d="M86.8194 298.966L67.6602 316.483L89.3394 340.43C91.4994 338.22 84.8754 321.674 84.8754 321.674L96.8418 310.097L86.8194 298.966Z" fill="#455A64"/>
<path d="M79.2089 313.33C78.9294 313.165 78.5991 313.108 78.2805 313.17C77.962 313.233 77.6774 313.41 77.4809 313.668C77.3045 313.94 77.239 314.269 77.298 314.588C77.3569 314.907 77.5357 315.191 77.7977 315.382C78.0933 315.56 78.4449 315.621 78.7833 315.553C79.1218 315.485 79.4225 315.293 79.6265 315.014C79.7816 314.712 79.8135 314.362 79.7155 314.037C79.6175 313.712 79.3971 313.438 79.1009 313.272" fill="#ED7289"/>
<path d="M67.6602 316.483L69.6402 314.64L89.6058 338.465C89.6058 338.465 90.0954 339.955 89.2314 340.51L67.6602 316.483Z" fill="#263238"/>
<path d="M85.3504 321.955C85.228 322.056 84.6304 321.516 83.752 321.286C82.8736 321.055 82.0816 321.185 82.0312 321.041C81.9808 320.897 82.816 320.45 83.896 320.753C84.976 321.055 85.48 321.883 85.3504 321.955Z" fill="#ED7289"/>
<path d="M86.5816 325.44C86.4952 325.57 85.8616 325.246 84.9832 325.296C84.1048 325.346 83.5 325.706 83.3992 325.584C83.2984 325.462 83.8384 324.792 84.904 324.756C85.9696 324.72 86.6896 325.303 86.5816 325.44Z" fill="#ED7289"/>
<path d="M84.8681 329.551C84.7241 329.45 85.0697 328.831 86.0993 328.5C87.0065 328.212 87.7625 328.536 87.7049 328.673C87.6473 328.81 86.9849 328.781 86.2649 329.026C85.5449 329.27 84.9833 329.659 84.8681 329.551Z" fill="#ED7289"/>
<path d="M87.9785 319.19C87.8273 319.234 87.5033 318.55 86.8625 317.93C86.2217 317.311 85.5449 316.987 85.5881 316.836C85.6313 316.685 86.4953 316.8 87.2441 317.556C87.9929 318.312 88.1225 319.162 87.9785 319.19Z" fill="#ED7289"/>
<path d="M90.3042 316.08C90.261 316.123 89.7642 315.727 89.2242 314.878C88.9215 314.373 88.6798 313.834 88.5042 313.272C88.3924 312.938 88.3058 312.596 88.245 312.25C88.1992 312.049 88.1846 311.843 88.2018 311.638C88.2129 311.485 88.2751 311.341 88.3784 311.229C88.4816 311.117 88.6198 311.042 88.7706 311.018C88.9036 311.005 89.0378 311.023 89.1628 311.071C89.2877 311.118 89.3999 311.194 89.4906 311.292C89.6305 311.442 89.747 311.612 89.8362 311.796C90.0055 312.109 90.1453 312.437 90.2538 312.775C90.4399 313.342 90.5323 313.935 90.5274 314.532C90.5812 315.084 90.4656 315.639 90.1962 316.123C90.1098 316.123 90.1962 315.504 90.1386 314.554C90.0861 314.001 89.9651 313.457 89.7786 312.934C89.6643 312.631 89.5271 312.337 89.3682 312.055C89.2026 311.746 89.0082 311.522 88.8354 311.558C88.6626 311.594 88.749 311.558 88.7274 311.71C88.7163 311.862 88.7285 312.015 88.7634 312.163C88.812 312.487 88.8817 312.807 88.9722 313.121C89.124 313.66 89.3265 314.183 89.577 314.683C89.8524 315.131 90.0955 315.598 90.3042 316.08Z" fill="#ED7289"/>
<path d="M90.0017 316.08C89.9441 316.08 90.1529 315.446 90.8729 314.712C91.292 314.293 91.7788 313.947 92.3129 313.69C92.6334 313.538 92.9688 313.419 93.3137 313.337C93.5314 313.259 93.7653 313.238 93.9933 313.276C94.2213 313.314 94.4359 313.409 94.6169 313.553C94.7153 313.66 94.779 313.794 94.7995 313.938C94.8201 314.082 94.7966 314.229 94.7321 314.359C94.649 314.548 94.5373 314.723 94.4009 314.878C94.0929 315.256 93.7128 315.569 93.2826 315.799C92.8525 316.029 92.3809 316.171 91.8953 316.217C91.3425 316.326 90.769 316.215 90.2969 315.907C90.8114 315.911 91.3258 315.887 91.8377 315.835C92.6893 315.679 93.4561 315.222 93.9977 314.546C94.2137 314.28 94.3361 313.999 94.2209 313.927C94.1052 313.86 93.9762 313.82 93.843 313.809C93.7098 313.797 93.5758 313.816 93.4505 313.862C93.1361 313.933 92.8279 314.03 92.5289 314.15C92.0121 314.366 91.5275 314.652 91.0889 315C90.3977 315.569 90.0737 316.08 90.0017 316.08Z" fill="#ED7289"/>
<path d="M82.1897 315.85L82.4345 341.813L114.734 341.676C114.532 338.587 97.7993 332.467 97.7993 332.467L98.3249 315.828L82.1897 315.85Z" fill="#455A64"/>
<path d="M87.7984 331.106C87.488 331.208 87.2262 331.421 87.0639 331.704C86.9016 331.987 86.8503 332.321 86.92 332.64C87.0017 332.954 87.202 333.224 87.4786 333.393C87.7552 333.562 88.0866 333.617 88.4032 333.547C88.7329 333.448 89.0135 333.229 89.1895 332.933C89.3655 332.637 89.424 332.286 89.3536 331.949C89.2334 331.631 88.9942 331.371 88.6865 331.226C88.3789 331.081 88.0268 331.061 87.7048 331.171" fill="#ED7289"/>
<path d="M82.4346 341.863L82.3914 339.084L113.459 340.142C113.459 340.142 114.899 340.769 114.734 341.784L82.4346 341.863Z" fill="#263238"/>
<path d="M98.3176 332.302C98.3176 332.46 97.5256 332.532 96.7552 333.022C95.9848 333.511 95.5672 334.195 95.4232 334.138C95.2792 334.08 95.5096 333.158 96.4528 332.561C97.396 331.963 98.3536 332.158 98.3176 332.302Z" fill="#263238"/>
<path d="M101.716 333.684C101.716 333.842 101.068 334.109 100.535 334.778C100.002 335.448 99.8512 336.154 99.6928 336.146C99.5344 336.139 99.4336 335.254 100.11 334.433C100.787 333.612 101.709 333.533 101.716 333.684Z" fill="#263238"/>
<path d="M103.653 337.73C103.509 337.766 103.286 337.01 103.653 336.118C104.02 335.225 104.79 334.901 104.855 335.03C104.92 335.16 104.474 335.628 104.135 336.341C103.797 337.054 103.811 337.716 103.653 337.73Z" fill="#263238"/>
<path d="M98.0154 328.493C97.9506 328.637 97.2306 328.421 96.3378 328.493C95.445 328.565 94.7538 328.846 94.6674 328.709C94.581 328.572 95.2506 327.989 96.3018 327.946C97.353 327.902 98.0946 328.37 98.0154 328.493Z" fill="#263238"/>
<path d="M81.4336 167.76C81.4336 167.76 79.3744 175.003 79.1368 175.522C77.02 180.216 71.4256 191.822 71.4256 191.822C71.4256 191.822 67.1704 206.942 68.1208 214.056C69.0712 221.17 75.436 269.899 75.436 269.899C75.436 269.899 74.1832 308.52 79.6264 325.706L80.6344 330.264L98.8432 327.031L102.882 231.422L113.992 168.214L81.4336 167.76Z" fill="#263238"/>
<path d="M126.88 176.4C126.88 176.4 134.886 241.502 135.88 251.914C136.874 262.325 99.0592 317.83 99.0592 317.83L83.1184 298.994L107.44 253.786L99.2464 208.75L110.046 168.12L125.375 168.3L126.88 176.4Z" fill="#263238"/>
<path d="M76.84 311.076C76.8584 311.52 76.9017 311.962 76.9696 312.401C77.0848 313.272 77.2936 314.561 77.596 316.202C78.2008 319.5 79.1872 324.281 80.476 330.257V330.379H80.5984L98.8144 327.19H98.9584V327.053C99.4696 314.554 100.074 299.614 100.722 283.594C101.392 266.357 102.018 250.373 102.53 237.262C103.89 226.728 105.021 218.016 105.813 211.918C106.194 208.894 106.49 206.518 106.698 204.876C106.792 204.077 106.864 203.436 106.922 203.026C106.979 202.615 106.979 202.392 106.979 202.392C106.979 202.392 106.929 202.601 106.864 203.018C106.799 203.436 106.713 204.07 106.598 204.862C106.367 206.496 106.043 208.872 105.618 211.896C104.798 217.987 103.617 226.692 102.191 237.218C101.658 250.33 101.01 266.314 100.312 283.55C99.6856 299.57 99.1024 314.51 98.6128 327.01L98.7568 326.844L80.5552 330.12L80.7064 330.221C79.3528 324.252 78.3304 319.478 77.6824 316.195C77.3584 314.546 77.1208 313.279 76.9624 312.415C76.8904 311.983 76.8472 311.652 76.8184 311.436C76.8321 311.316 76.8393 311.196 76.84 311.076Z" fill="#455A64"/>
<path d="M92.5576 55.0944C92.5374 53.767 92.0736 52.4845 91.24 51.4512C90.3656 50.2701 89.1821 49.3532 87.82 48.8016C86.5579 48.3101 85.1816 48.1899 83.8534 48.4552C82.5253 48.7205 81.3007 49.3602 80.3243 50.2988C79.3478 51.2374 78.6602 52.4358 78.3427 53.7524C78.0251 55.0691 78.0908 56.4491 78.532 57.7296C79.4104 60.2784 82.6216 62.8704 85.3 63.1368L89.3464 60.0624C91.0312 58.9248 92.5144 57.1536 92.5576 55.0944Z" fill="#263238"/>
<path d="M81.6785 49.5576C81.6785 49.5576 81.8225 49.4136 82.1537 49.2768C82.6341 49.086 83.1491 48.9977 83.6657 49.0176C84.4242 49.0462 85.1649 49.256 85.8257 49.6296C86.642 50.1058 87.3235 50.7823 87.8057 51.5952C88.646 53.0693 89.0153 54.7652 88.8641 56.4552C88.8509 57.1473 88.7269 57.8328 88.4969 58.4856C88.4249 58.4856 88.5473 57.6936 88.5617 56.448C88.6345 54.8417 88.2607 53.2466 87.4817 51.84C87.0365 51.0847 86.4137 50.4495 85.6673 49.9896C85.0528 49.6231 84.3638 49.3992 83.6513 49.3344C82.9859 49.3023 82.3198 49.3777 81.6785 49.5576Z" fill="#455A64"/>
<path d="M79.3528 59.148C79.1639 58.5974 79.1464 58.0024 79.3024 57.4416C79.6196 56.0644 80.4158 54.8447 81.5488 54C82.6743 53.1885 83.965 52.6354 85.3288 52.38C85.8763 52.2258 86.4463 52.1674 87.0136 52.2072C86.4871 52.4048 85.9453 52.5589 85.3936 52.668C84.0999 52.9953 82.8789 53.5618 81.7936 54.3384C80.7337 55.1291 79.9562 56.2398 79.576 57.5064C79.4684 58.0486 79.3938 58.5968 79.3528 59.148Z" fill="#455A64"/>
<path d="M99.3185 55.8288C95.3153 55.224 91.8305 56.8224 88.5185 59.1336C85.2023 61.5148 82.6907 64.8502 81.3185 68.6952C79.7913 72.72 79.6144 77.1323 80.8145 81.2664C81.4293 83.3165 82.4531 85.2206 83.8243 86.864C85.1954 88.5074 86.8853 89.8559 88.7921 90.828C94.0337 93.3696 100.665 92.3256 105.244 88.7328C109.823 85.14 112.379 79.272 112.502 73.4472C112.636 69.4001 111.495 65.413 109.24 62.0496C108.102 60.3885 106.635 58.9791 104.929 57.909C103.224 56.8388 101.316 56.1308 99.3257 55.8288" fill="#263238"/>
<path d="M88.2089 69.6168C88.7633 68.076 88.5113 66.3768 88.7129 64.7496C89.1521 61.1496 91.9745 58.2696 95.2721 56.8296C98.3393 55.4832 102.126 55.692 105.87 56.8296C108.471 57.566 110.806 59.0298 112.602 61.0488C113.748 62.4195 114.55 64.0442 114.941 65.7876C115.332 67.531 115.3 69.3425 114.849 71.0712L96.5537 68.7456C94.9463 70.2788 93.1007 71.5408 91.0889 72.4824C90.4951 72.7575 89.8403 72.8741 89.1881 72.8208C88.864 72.7866 88.5565 72.6608 88.3014 72.458C88.0464 72.2553 87.8544 71.984 87.7481 71.676C87.5681 70.9704 87.9713 70.2864 88.2089 69.6168Z" fill="#263238"/>
<path d="M106.36 61.848L90.5201 65.52C89.7777 65.583 89.0858 65.9217 88.5807 66.4694C88.0756 67.0171 87.794 67.7342 87.7913 68.4792L88.5761 102.96C88.628 105.321 89.4582 107.599 90.9377 109.44L92.4929 111.37C96.0425 115.776 103.048 115.2 105.604 110.153C105.761 109.868 105.877 109.563 105.95 109.246C106.012 108.99 106.058 108.73 106.086 108.468C106.333 106.737 106.396 104.985 106.274 103.241C106.367 100.166 106.396 98.9208 106.396 98.9208C106.396 98.9208 112.876 97.9776 114.417 89.5608C115.173 85.3704 115.137 78.4728 114.863 72.828C114.647 67.68 111.4 61.416 106.36 61.848Z" fill="#B5675E"/>
<path d="M112.559 79.2C112.556 79.4834 112.441 79.7541 112.241 79.9545C112.041 80.1548 111.77 80.2691 111.486 80.2728C111.348 80.2816 111.21 80.2624 111.079 80.2164C110.949 80.1704 110.829 80.0985 110.727 80.0051C110.624 79.9116 110.542 79.7986 110.485 79.6726C110.427 79.5466 110.396 79.4104 110.392 79.272C110.396 78.9899 110.509 78.7202 110.708 78.52C110.907 78.3198 111.176 78.2048 111.458 78.1992C111.596 78.1914 111.734 78.2113 111.865 78.2576C111.996 78.3039 112.116 78.3757 112.218 78.4688C112.321 78.562 112.404 78.6746 112.462 78.8001C112.521 78.9257 112.554 79.0616 112.559 79.2Z" fill="#263238"/>
<path d="M113.294 76.32C113.157 76.4568 112.35 75.8304 111.184 75.8088C110.018 75.7872 109.146 76.356 109.024 76.212C108.902 76.068 109.103 75.8952 109.485 75.6288C109.997 75.2918 110.6 75.1186 111.213 75.132C111.819 75.1448 112.407 75.3489 112.89 75.7152C113.243 76.0248 113.366 76.32 113.294 76.32Z" fill="#263238"/>
<path d="M102.126 79.2C102.125 79.4827 102.012 79.7534 101.813 79.954C101.613 80.1546 101.344 80.269 101.061 80.2728C100.923 80.2806 100.784 80.2607 100.654 80.2144C100.523 80.1681 100.403 80.0963 100.3 80.0032C100.198 79.91 100.115 79.7974 100.056 79.6719C99.9977 79.5463 99.9647 79.4104 99.9592 79.272C99.9648 78.9892 100.08 78.7195 100.28 78.5195C100.48 78.3195 100.749 78.2047 101.032 78.1992C101.17 78.1915 101.308 78.2113 101.438 78.2577C101.568 78.3041 101.688 78.376 101.79 78.4693C101.892 78.5625 101.974 78.6752 102.032 78.8007C102.09 78.9261 102.122 79.0619 102.126 79.2Z" fill="#263238"/>
<path d="M102.213 76.2624C102.076 76.3992 101.27 75.78 100.103 75.7584C98.9368 75.7368 98.0656 76.2984 97.9432 76.1544C97.8208 76.0104 98.0224 75.8376 98.404 75.5784C98.9133 75.2349 99.518 75.0611 100.132 75.0816C100.739 75.0883 101.327 75.2903 101.81 75.6576C102.162 75.9456 102.285 76.2048 102.213 76.2624Z" fill="#263238"/>
<path d="M105.878 85.068C106.497 84.8907 107.135 84.7892 107.779 84.7656C108.074 84.7656 108.362 84.6864 108.412 84.4848C108.445 84.1781 108.382 83.8687 108.232 83.5992C107.966 82.8792 107.692 82.1088 107.397 81.3096C106.245 78.0552 105.41 75.384 105.539 75.3336C105.669 75.2832 106.72 77.8896 107.879 81.1512L108.671 83.448C108.854 83.8109 108.9 84.2275 108.801 84.6216C108.758 84.7266 108.69 84.8198 108.604 84.8936C108.517 84.9675 108.415 85.0198 108.304 85.0464C108.14 85.0896 107.97 85.1114 107.8 85.1112C107.16 85.1828 106.514 85.1683 105.878 85.068Z" fill="#263238"/>
<path d="M106.396 98.8992C102.413 98.8791 98.5147 97.7524 95.1353 95.6448C95.1353 95.6448 97.8569 101.556 106.338 100.944L106.396 98.8992Z" fill="#522700"/>
<path d="M105.111 88.9565C104.829 88.7369 104.495 88.5932 104.141 88.5392C103.787 88.4853 103.426 88.5228 103.09 88.6482C102.844 88.7367 102.619 88.8749 102.429 89.0542C102.238 89.2335 102.086 89.45 101.983 89.6903C101.879 89.9166 101.846 90.1695 101.889 90.415C101.932 90.6605 102.049 90.887 102.225 91.0642C102.459 91.22 102.733 91.3038 103.015 91.3052C103.296 91.3067 103.571 91.2258 103.807 91.0725C104.296 90.7488 104.716 90.3323 105.044 89.8466C105.149 89.725 105.231 89.5843 105.283 89.4322C105.307 89.3593 105.309 89.281 105.289 89.2069C105.269 89.1329 105.228 89.0662 105.171 89.0149" fill="#522700"/>
<path d="M101.773 87.7115C101.961 87.6612 102.26 88.8857 103.522 89.4793C104.784 90.0728 106.067 89.6321 106.121 89.8041C106.174 89.9761 105.89 90.1118 105.336 90.2679C104.624 90.4597 103.867 90.399 103.195 90.096C102.55 89.7912 102.05 89.2452 101.804 88.5755C101.629 88.0633 101.686 87.72 101.773 87.7115Z" fill="#263238"/>
<path d="M102.083 72.7992C101.968 73.116 100.802 72.9432 99.4336 73.08C98.0656 73.2168 96.9424 73.5696 96.7624 73.2816C96.6904 73.1376 96.8848 72.8496 97.3384 72.5616C97.9424 72.1978 98.6213 71.9763 99.3237 71.9139C100.026 71.8516 100.733 71.9499 101.392 72.2016C101.889 72.396 102.141 72.6552 102.083 72.7992Z" fill="#263238"/>
<path d="M113.063 71.2368C112.854 71.496 112.055 71.2368 111.083 71.172C110.111 71.1072 109.298 71.316 109.118 71.0352C109.031 70.8984 109.168 70.632 109.535 70.3872C110.019 70.0917 110.582 69.9534 111.148 69.9912C111.715 70.0077 112.262 70.2044 112.71 70.5528C113.049 70.8336 113.157 71.1072 113.063 71.2368Z" fill="#263238"/>
<path d="M85.2425 67.212C86.8049 62.3304 93.8825 55.5912 99.0089 55.9512L107.166 60.8688C106.898 62.2607 106.259 63.5543 105.316 64.6126C104.373 65.6709 103.162 66.4546 101.81 66.8808C100.37 67.32 98.6273 67.4352 97.7705 68.6808C96.9137 69.9264 97.3961 71.7912 96.5825 73.0944C95.4449 74.9088 92.3561 74.8152 91.5425 76.7736C91.1681 77.6304 91.3625 78.6528 90.9737 79.5024C90.4553 80.6328 87.5897 82.0656 86.4017 81.6624C85.2137 81.2592 85.2209 79.272 84.8321 78.2136C84.3499 77.0163 84.2915 75.6902 84.6665 74.4552C85.1561 72.0864 84.5009 69.5376 85.2425 67.212Z" fill="#263238"/>
<path d="M89.8649 82.692C89.8649 82.0584 89.1449 80.532 88.5545 80.4528C86.8985 80.1576 83.9033 80.2296 83.7881 84.4488C83.6297 90.2088 89.4545 89.1792 89.4689 89.0136C89.4833 88.848 89.8001 84.8664 89.8649 82.692Z" fill="#B5675E"/>
<path d="M87.7698 86.7816C87.7698 86.7816 87.6618 86.8536 87.489 86.9256C87.2575 87.0163 87.0004 87.0163 86.769 86.9256C86.1642 86.688 85.6818 85.7088 85.6818 84.6648C85.68 84.1673 85.7882 83.6756 85.9986 83.2248C86.0631 83.0525 86.167 82.8977 86.3021 82.7727C86.4371 82.6477 86.5994 82.5559 86.7762 82.5048C86.8925 82.4782 87.0146 82.4931 87.1211 82.547C87.2276 82.6009 87.3119 82.6904 87.3594 82.8C87.4386 82.9584 87.3954 83.0736 87.4242 83.088C87.453 83.1024 87.5538 82.9944 87.5106 82.7568C87.4814 82.6117 87.4055 82.4802 87.2946 82.3824C87.1366 82.2612 86.9384 82.2045 86.7402 82.224C86.5034 82.2669 86.2812 82.3685 86.0938 82.5194C85.9064 82.6703 85.7598 82.8658 85.6674 83.088C85.4115 83.5819 85.2782 84.1301 85.2786 84.6864C85.2786 85.8528 85.8474 86.9544 86.6754 87.2136C86.8282 87.2642 86.9906 87.2794 87.1502 87.2582C87.3098 87.237 87.4626 87.1799 87.597 87.0912C87.7554 86.9256 87.7842 86.796 87.7698 86.7816Z" fill="#522700"/>
<path d="M105.46 59.1552C106.036 61.488 109.65 64.4328 111.22 66.2328C114.273 69.66 114.885 70.8048 114.993 78.5952C116.354 75.8808 117.383 73.224 117.225 70.1928C117.101 67.1246 115.859 64.2077 113.733 61.992C112.666 60.9052 111.359 60.0828 109.918 59.5903C108.477 59.0978 106.94 58.9488 105.431 59.1552" fill="#263238"/>
<path d="M80.2672 75.492C80.6974 75.559 81.123 75.6528 81.5416 75.7728C82.6726 76.0808 83.8398 76.2358 85.012 76.2336C85.814 76.2179 86.6048 76.0416 87.3376 75.7152C88.221 75.3441 88.9733 74.7173 89.4976 73.9152C90.0664 73.0656 90.2176 71.892 90.7216 70.7688C90.9586 70.2113 91.3127 69.7112 91.7599 69.3025C92.2071 68.8938 92.737 68.586 93.3136 68.4C94.48 68.0904 95.6248 68.4 96.5896 68.0184C97.5544 67.6368 98.0872 66.5784 98.5192 65.6352C98.8919 64.6719 99.4359 63.784 100.125 63.0144C100.724 62.4068 101.432 61.9182 102.213 61.5744C103.309 61.0624 104.536 60.9014 105.726 61.1136C106.05 61.1691 106.366 61.2609 106.67 61.3872C106.78 61.4217 106.884 61.4727 106.979 61.5384C106.979 61.5816 106.533 61.3872 105.712 61.2792C104.547 61.1337 103.365 61.334 102.314 61.8552C101.571 62.207 100.902 62.6955 100.341 63.2952C99.6891 64.0454 99.177 64.9061 98.8288 65.8368C98.612 66.3573 98.3468 66.8563 98.0368 67.3272C97.7136 67.8103 97.2517 68.1843 96.712 68.4C95.6104 68.8032 94.4584 68.508 93.4072 68.8032C92.8764 68.9693 92.3879 69.2484 91.9753 69.6213C91.5627 69.9942 91.2357 70.4519 91.0168 70.9632C90.5488 71.9928 90.3688 73.2096 89.7424 74.1456C89.1868 74.9925 88.3889 75.6524 87.4528 76.0392C86.6827 76.365 85.8554 76.5339 85.0192 76.536C83.8252 76.5086 82.6415 76.3073 81.5056 75.9384C81.1024 75.816 80.7856 75.708 80.5768 75.6288C80.368 75.5496 80.26 75.5064 80.2672 75.492Z" fill="#455A64"/>
<path d="M83.7737 64.8432C83.9238 64.2788 84.1671 63.7434 84.4937 63.2592C85.958 60.8154 88.2026 58.936 90.8657 57.924C91.3985 57.6859 91.9685 57.5422 92.5505 57.4992C90.7337 58.1971 89.0341 59.1683 87.5105 60.3792C84.9689 62.4168 83.8889 64.9152 83.7737 64.8432Z" fill="#9D0824"/>
<path d="M140.672 137.794L116.941 147.434L117.848 158.969L142.191 148.385L144.308 142.344L140.672 137.794Z" fill="#B5675E"/>
<path d="M134.631 139.183L136.403 153.835L121.499 163.037L120.167 143.899L134.631 139.183Z" fill="#455A64"/>
<path d="M112.221 109.526C112.725 110.527 124.051 126.317 125.217 133.69C126.002 138.65 127.276 155.7 127.881 166.867C127.96 168.307 129.213 169.841 128.968 170.986C128.083 175.097 125.944 174.701 123.172 174.463L92.2121 173.585L78.4529 175.104L85.3433 154.555C85.3433 154.555 79.3961 127.541 78.4529 126.706C77.5097 125.87 82.4057 103.68 82.4057 103.68L87.9929 103.169C87.9929 103.169 98.3537 108.245 103.631 107.431C104.401 107.319 105.113 106.962 105.662 106.411C106.211 105.861 106.567 105.148 106.677 104.378L112.221 109.526Z" fill="#455A64"/>
<path d="M153.97 138.838V137.794H168.291V138.838" fill="#263238"/>
<path d="M140.672 137.794L149.312 135.014L158.463 136.145C158.463 136.145 158.715 137.455 157.023 137.794C155.331 138.132 151.436 137.794 151.436 137.794C151.436 137.794 151.357 142.229 146.079 143.482L142.652 143.899L140.672 137.794Z" fill="#B5675E"/>
<path d="M154.489 137.938C154.489 137.938 154.878 137.88 155.137 138.982C155.245 139.89 155.134 140.811 154.813 141.667C154.813 141.667 155.259 143.309 154.489 143.899L153.726 144.49C153.726 144.49 153.675 146.981 152.912 147.65C152.149 148.32 145.82 150.53 145.82 150.53L141.032 148.572L142.854 143.251L150.421 138.557L151.465 137.801L154.489 137.938Z" fill="#B5675E"/>
<path d="M153.683 143.899C153.356 143.742 153.051 143.543 152.775 143.309C152.228 142.906 151.451 142.315 150.543 141.61H150.723C150.538 141.702 150.377 141.836 150.252 142.001C150.128 142.166 150.042 142.357 150.003 142.56C149.96 143.036 150.065 143.514 150.306 143.928C150.451 144.206 150.619 144.471 150.81 144.72L151.271 145.296L150.594 145.008C150.202 144.845 149.777 144.775 149.353 144.805C148.929 144.835 148.518 144.964 148.153 145.181L147.98 145.289L147.915 145.094C147.801 144.746 147.613 144.427 147.364 144.157C147.116 143.888 146.813 143.675 146.475 143.532C145.986 143.316 145.669 143.323 145.669 143.28C145.963 143.214 146.27 143.242 146.547 143.359C146.928 143.49 147.275 143.706 147.56 143.99C147.846 144.275 148.063 144.62 148.196 145.001L147.959 144.914C148.365 144.654 148.829 144.494 149.31 144.451C149.791 144.407 150.276 144.479 150.723 144.662L150.507 144.958C150.293 144.692 150.107 144.405 149.953 144.101C149.673 143.615 149.557 143.052 149.622 142.495C149.674 142.237 149.787 141.994 149.953 141.789C150.118 141.583 150.331 141.42 150.572 141.314L150.673 141.264L150.752 141.329C151.645 142.049 152.387 142.682 152.912 143.136C153.201 143.355 153.461 143.612 153.683 143.899Z" fill="#522700"/>
<path d="M150.644 141.473C150.334 141.207 150.113 140.853 150.01 140.458C149.931 140.235 149.901 139.999 149.922 139.764C149.943 139.529 150.015 139.301 150.133 139.097C150.46 138.617 150.952 138.273 151.515 138.132H151.609L151.688 138.204L151.861 138.362C152.967 139.269 153.991 140.271 154.921 141.358C153.74 140.548 152.632 139.638 151.609 138.636L151.436 138.485L151.609 138.528C151.135 138.642 150.715 138.916 150.421 139.306C150.321 139.471 150.255 139.656 150.228 139.847C150.201 140.039 150.212 140.234 150.262 140.422C150.428 141.062 150.709 141.444 150.644 141.473Z" fill="#522700"/>
<path d="M58.3145 119.88C58.9337 120.6 104.092 153.418 104.092 153.418L81.5417 197.798C81.5417 197.798 66.0401 190.598 53.2025 183.341C40.3649 176.083 27.2825 158.026 27.2825 158.026L58.3145 119.88Z" fill="#9D0824"/>
<path d="M81.8801 103.997C81.4049 103.932 73.4345 103.09 68.6321 113.774C66.0833 119.448 58.2785 137.167 56.7449 141.473C55.7225 144.353 52.5401 155.729 55.5137 160.517C58.2281 164.887 61.2233 165.65 67.5089 164.29C74.0465 162.85 89.6129 153.576 89.6129 153.576L82.8089 139.63L78.3233 141.192L82.2617 131.58C84.8033 124.38 86.3657 114.869 86.4593 114.768C86.5529 114.667 90.1457 105.12 81.8801 103.997Z" fill="#455A64"/>
<path d="M78.1146 159.905C78.1146 159.905 78.1794 159.847 78.3162 159.761L78.9282 159.401L81.261 158.062L89.541 153.425L89.469 153.648L84.9474 144.425L82.6506 139.68L82.8666 139.781C77.8914 141.314 73.5858 142.762 70.5402 143.842C69.0138 144.382 67.8042 144.85 66.9402 145.159L65.9898 145.526C65.8805 145.573 65.7672 145.609 65.6514 145.634C65.6514 145.634 65.7522 145.562 65.961 145.462L66.8898 145.044C67.7106 144.691 68.9058 144.194 70.425 143.604C73.4634 142.452 77.7546 140.962 82.7298 139.406L82.881 139.363L82.9458 139.5C83.6658 141.005 84.4578 142.582 85.2498 144.209L89.8002 153.497L89.8722 153.648L89.7282 153.72L81.3834 158.234L79.0074 159.494L78.3738 159.811C78.2933 159.857 78.2056 159.888 78.1146 159.905Z" fill="#263238"/>
<path d="M111.4 131.27L115.72 123.984C116.061 123.407 116.608 122.981 117.251 122.792C117.893 122.602 118.584 122.663 119.183 122.962L129.882 128.945C130.269 129.107 130.613 129.358 130.885 129.676C131.158 129.995 131.352 130.373 131.452 130.781C131.552 131.188 131.556 131.613 131.462 132.022C131.368 132.431 131.18 132.812 130.912 133.135L117.318 154.454C116.956 155.026 116.388 155.436 115.731 155.601C115.075 155.766 114.38 155.672 113.791 155.34L103.365 149.479C103.054 149.304 102.782 149.067 102.565 148.784C102.348 148.501 102.19 148.177 102.102 147.831C102.013 147.486 101.995 147.126 102.049 146.773C102.102 146.42 102.227 146.082 102.414 145.778L111.4 131.27Z" fill="#263238"/>
<path d="M80.6921 103.954L82.2329 103.406C83.3195 103.003 84.5083 102.968 85.6169 103.306C86.4493 103.569 87.1955 104.051 87.7769 104.702C91.9385 109.397 91.9961 122.868 92.0969 126.108C92.1977 129.348 93.5945 147.989 93.5945 147.989H88.1081C88.1081 147.989 88.7129 122.306 88.7777 118.469C88.9865 106.157 80.6921 103.954 80.6921 103.954Z" fill="#9D0824"/>
<path d="M85.4296 125.28C85.231 126.078 84.9611 126.856 84.6232 127.606C84.076 129.046 83.2552 130.946 82.276 133.042C81.2968 135.137 80.332 137.009 79.6048 138.334C79.2413 139.057 78.8174 139.748 78.3376 140.4C78.6329 139.635 78.9768 138.889 79.3672 138.168C80.0368 136.814 80.9584 134.935 81.9376 132.84C82.9168 130.745 83.7664 128.844 84.3784 127.462C84.6811 126.712 85.0323 125.984 85.4296 125.28Z" fill="#263238"/>
<path d="M151.71 138.535C151.674 138.535 151.4 138.233 151.314 137.57C151.264 137.183 151.301 136.79 151.422 136.418C151.464 136.287 151.538 136.168 151.638 136.073C151.705 136.018 151.786 135.983 151.872 135.969C151.958 135.955 152.046 135.963 152.127 135.994C152.356 136.098 152.569 136.234 152.761 136.397C153.74 137.045 154.569 137.894 155.194 138.888C155.108 138.96 154.064 137.822 152.538 136.728C152.373 136.59 152.194 136.469 152.005 136.368C151.933 136.368 151.904 136.368 151.868 136.368C151.815 136.422 151.773 136.485 151.746 136.555C151.627 136.88 151.569 137.224 151.573 137.57C151.594 138.154 151.76 138.514 151.71 138.535Z" fill="#522700"/>
<path d="M151.659 137.657C151.659 137.657 151.559 137.786 151.307 137.765C151.055 137.743 150.745 137.621 150.587 137.945C150.192 138.919 149.629 139.816 148.923 140.594C148.208 141.379 147.347 142.017 146.389 142.474C146.006 142.692 145.582 142.827 145.143 142.87C146.441 142.222 147.625 141.369 148.65 140.342C149.332 139.575 149.908 138.721 150.363 137.801C150.422 137.707 150.506 137.631 150.605 137.582C150.704 137.532 150.815 137.511 150.925 137.52C151.064 137.542 151.202 137.575 151.335 137.621C151.537 137.678 151.645 137.628 151.659 137.657Z" fill="#522700"/>
<path d="M127.607 167.854C127.516 167.534 127.461 167.206 127.442 166.874C127.355 166.248 127.254 165.334 127.132 164.203C126.902 161.935 126.628 158.803 126.412 155.34C126.196 151.877 126.066 148.738 126.009 146.462C126.009 145.325 125.966 144.41 125.973 143.77C125.956 143.44 125.968 143.11 126.009 142.783C126.081 143.107 126.117 143.438 126.117 143.77C126.16 144.49 126.21 145.375 126.275 146.455C126.412 148.795 126.592 151.891 126.786 155.318C126.981 158.746 127.24 161.834 127.406 164.174C127.478 165.254 127.542 166.154 127.593 166.86C127.626 167.19 127.631 167.523 127.607 167.854Z" fill="#263238"/>
<path d="M96.0785 148.846C96.0114 149.004 95.9295 149.156 95.8337 149.299L95.1137 150.566L92.2913 155.196L82.9601 170.453C79.3529 176.4 76.1201 181.807 73.7081 185.76L70.8929 190.39C70.5761 190.908 70.3169 191.326 70.1153 191.642C70.0323 191.794 69.9333 191.937 69.8201 192.067C69.8855 191.908 69.9625 191.754 70.0505 191.606C70.2305 191.275 70.4753 190.85 70.7705 190.318C71.4329 189.173 72.3545 187.582 73.4777 185.623C75.7889 181.678 79.0145 176.263 82.6361 170.266C86.2577 164.268 89.5913 158.926 92.0393 155.059L94.9193 150.494C95.2577 149.99 95.5313 149.58 95.7329 149.263C95.8335 149.113 95.9493 148.973 96.0785 148.846Z" fill="#263238"/>
<path d="M103.034 147.197C103.086 147.053 103.154 146.916 103.235 146.786C103.394 146.491 103.61 146.117 103.862 145.656L106.252 141.523C108.318 138.017 111.126 133.243 114.237 127.973L115.403 126.014C115.738 125.331 116.2 124.718 116.764 124.207C117.07 123.963 117.431 123.797 117.815 123.725C118.202 123.664 118.599 123.73 118.946 123.912C119.579 124.229 120.17 124.56 120.76 124.884C123.086 126.18 125.152 127.397 126.88 128.434C127.744 128.952 128.522 129.434 129.191 129.874C129.52 130.075 129.822 130.317 130.091 130.594C130.312 130.836 130.461 131.135 130.523 131.458C130.597 131.896 130.55 132.347 130.386 132.761C130.343 132.909 130.269 133.046 130.17 133.164C130.17 133.164 130.228 133.02 130.314 132.739C130.437 132.333 130.462 131.904 130.386 131.486C130.315 131.195 130.165 130.929 129.954 130.716C129.688 130.469 129.393 130.253 129.076 130.075C128.399 129.658 127.636 129.197 126.743 128.693C125.008 127.685 122.927 126.49 120.594 125.215C120.011 124.898 119.406 124.567 118.794 124.265C118.503 124.124 118.176 124.073 117.855 124.119C117.534 124.166 117.235 124.306 116.994 124.524C116.469 125.008 116.039 125.587 115.727 126.23L114.561 128.16L106.475 141.66L103.991 145.728L103.271 146.822C103.206 146.956 103.127 147.081 103.034 147.197Z" fill="#E0E0E0"/>
<path d="M82.9961 140.004C82.9961 140.004 94.8689 134.244 98.3105 133.675C101.752 133.106 112.79 133.135 112.79 133.135C112.79 133.135 119.111 135.641 120.076 137.794C121.041 139.946 120.076 140.753 120.076 140.753C120.268 141.471 120.21 142.233 119.91 142.913C119.637 143.453 118.413 143.669 118.413 143.669L118.535 144.194C118.535 144.194 118.535 144.634 117.513 145.03C117.215 145.151 116.889 145.186 116.572 145.131C116.255 145.076 115.96 144.934 115.72 144.72L112.451 143.28L108.412 142.798L111.839 144.022C111.839 144.022 114.82 145.109 115.187 145.98C115.252 146.133 115.272 146.301 115.245 146.465C115.217 146.629 115.144 146.781 115.033 146.905C114.921 147.028 114.777 147.117 114.617 147.161C114.457 147.205 114.288 147.203 114.129 147.154C113.171 146.995 100.528 144.749 100.528 144.749L98.4473 144.173C98.4473 144.173 88.5041 151.006 88.5113 151.042C88.5185 151.078 82.9961 140.004 82.9961 140.004Z" fill="#B5675E"/>
<path d="M108.434 139.414C108.96 139.195 109.528 139.096 110.097 139.126C111.473 139.127 112.834 139.424 114.086 139.997C115.344 140.544 116.482 141.334 117.434 142.322C117.847 142.712 118.18 143.179 118.413 143.698C118.362 143.698 117.988 143.208 117.246 142.51C116.268 141.613 115.15 140.883 113.934 140.35C112.72 139.807 111.417 139.488 110.09 139.406C109.074 139.342 108.448 139.478 108.434 139.414Z" fill="#522700"/>
<path d="M120.127 140.94C120.083 140.983 119.587 140.544 118.687 139.961C117.787 139.378 116.527 138.571 115.159 137.65C114.543 137.199 113.895 136.792 113.222 136.433C112.65 136.21 112.048 136.074 111.436 136.03C110.371 135.943 109.708 136.03 109.701 136.03C110.258 135.815 110.857 135.734 111.451 135.792C112.102 135.794 112.748 135.911 113.359 136.138C114.062 136.488 114.734 136.898 115.367 137.362C116.735 138.283 117.967 139.118 118.838 139.766C119.335 140.076 119.772 140.474 120.127 140.94Z" fill="#522700"/>
<defs>
<filter id="filter0_f_72_1857" x="250.727" y="19.5455" width="86.0909" height="354.455" filterUnits="userSpaceOnUse" color-interpolation-filters="sRGB">
<feFlood flood-opacity="0" result="BackgroundImageFix"/>
<feBlend mode="normal" in="SourceGraphic" in2="BackgroundImageFix" result="shape"/>
<feGaussianBlur stdDeviation="16" result="effect1_foregroundBlur_72_1857"/>
</filter>
</defs>
</svg>
